<svg width="108" height="108" xmlns="http://www.w3.org/2000/svg">
	<defs>
		<pattern id="trings" width="12" height="12" patternUnits="userSpaceOnUse">
			<path fill="#de7c61" d="M 1.4,1.3 1,9.4 9.1,1.4 Z" id="path2" />
			<path fill="#e2e542" d="M 2.5,11 11,2.7 10.5,10.8 Z" id="path4" />
			<rect fill="none" opacity="0" width="12" height="12" x="0" y="0" />
		</pattern>
		<pattern id="sqdot" width="12" height="12" patternUnits="userSpaceOnUse">
			<path fill="#6175af" d="M3 0 0 4v4l3 4h6l3-4V4L9 0Z" />
			<circle cx="6" cy="6" r="3.1" fill="#f79c40" />
		</pattern>
		<pattern id="eggs" width="12" height="12" patternUnits="userSpaceOnUse">
			<path fill="#de7c61" d="M0 0h12v12H0z" />
			<ellipse cx="5.7" cy="5.8" fill="#fff3d4" rx="3.8" ry="4" />
			<ellipse cx="5.7" cy="5.8" fill="#e2e542" rx="1.5" ry="1.7" />
		</pattern>
		<pattern id="aztec" width="12" height="12" patternUnits="userSpaceOnUse">
			<path fill="#e2e542" d="M3 9V7H1V5h2V3h2V1h2v2h2v2h2v2H9v2H7v2H5V9Z" />
			<path fill="#61af76" d="M5 3h2v2h2v2H7v2H5V7H3V5h2Z" />
		</pattern>
		<pattern id="arrows" width="36" height="36" patternUnits="userSpaceOnUse">
			<rect fill="#0000" width="36" height="36" x="0" y="0" />
			<g id="arws">
				<path fill="#f79c40" d="M 1,17 6,12 11,17 10,18 6,14 2,18 Z" id="path2" />
				<path fill="#61af76" d="M 1,23 6,18 11,23 10,24 6,20 2,24 Z" id="path4" />
			</g>
			<path id="crnr" fill="#61af76" stroke-width="1" d="M 11,11 H 1 V 5 H 9 V 3 H 1 V 1 H 11 V 7 H 3 V 9 H 11 Z" />
			<use href="#crnr" transform="rotate(-90,18,-6)" />
			<use href="#crnr" transform="rotate(180,18,18)" />
			<use href="#crnr" transform="rotate(90,-6,18)" />
			<use href="#arws" transform="rotate(90,18,18)" />
			<use href="#arws" transform="rotate(180,18,18)" />
			<use href="#arws" transform="rotate(-90,18,18)" />
		</pattern>
	</defs>
	<rect style="fill:url(#trings);" width="36" height="36" x="0" y="0" />
	<rect style="fill:url(#sqdot);" width="36" height="36" x="36" y="0" />
	<rect style="fill:url(#eggs);" width="36" height="36" x="72" y="0" />
	<rect style="fill:url(#aztec);" width="36" height="36" x="0" y="36" />
	<rect style="fill:url(#arrows);" width="36" height="36" x="36" y="36" />
</svg>
