<svg
    class="chalkboard_icon"
    xmlns="http://www.w3.org/2000/svg"
    viewbox="0 0 100 100">
    <path fill="#333" d="M50 0a50 50 0 10.1 100.1A50 50 0 0050 0zM5 50c0-6.5 1.4-12.7 4-18.3l21.4 58.8A45 45 0 015 50zm45 45c-4.4 0-8.7-.7-12.7-1.9L50.8 54l13.8 37.9.3.6A45 45 0 0150 95zm6.2-66l5.1-.5c2.5-.3 2.2-3.8-.3-3.7 0 0-7.2.6-12 .6-4.3 0-11.8-.6-11.8-.6-2.4-.1-2.7 3.6-.2 3.7 0 0 2.3.3 4.7.4l7 19.2-9.9 29.5L22.5 29c2.7-.1 5.1-.4 5.1-.4 2.4-.3 2.1-3.8-.3-3.7 0 0-7.3.6-12 .6l-2.9-.1a45 45 0 0168-8.5h-.6c-4.4 0-7.6 3.8-7.6 8 0 3.7 2.2 6.8 4.5 10.5 1.7 3 3.7 6.9 3.7 12.4 0 3.9-1.5 8.3-3.5 14.6l-4.4 15zm16.4 59.9l13.7-39.7a42.5 42.5 0 003.2-20.8A44.8 44.8 0 0172.6 89z"/>
</svg>
