<svg    
    class="chalkboard_icon"
    xmlns="http://www.w3.org/2000/svg"
    viewbox="0 0 100 100">
    <path fill="#333" d="M43 0A43 43 0 0 0 0 43a43 43 0 0 0 43 43 43 43 0 0 0 22.5-6.4L82.9 97a10 10 0 0 0 7.1 3 10 10 0 0 0 10-10 10 10 0 0 0-3-7.1L79.6 65.5A43 43 0 0 0 86 43a43 43 0 0 0-4.4-19l6.6-6.6 3.9-4 2.3 2.4 2.3 2.3.2-.9c1-4.6 3.3-17.1 3-17.2-.2-.1-17.2 4.2-17.5 4.5l2 2.2 2 2.1-8.8 8.6A43 43 0 0 0 43 0Zm0 10a33 33 0 0 1 27.3 14.5 38433.8 38433.8 0 0 0-20.8 20c-.6.5-1.5-.2-9.1-7.8l-8.6-8.4-16 16-5.1 5.2A33 33 0 0 1 10 43a33 33 0 0 1 33-33Zm31 21.8A33 33 0 0 1 76 43a33 33 0 0 1-33 33 33 33 0 0 1-29.3-18l4.5-4.4 13-13 2.6 2.4a876.2 876.2 0 0 0 13.4 12.5l1.8 1.7 17.7-18 7.3-7.4z"/>
</svg>
