<svg
    class="sign_icon"
    xmlns="http://www.w3.org/2000/svg"
    viewbox="0 0 100 100">
    <path fill="#333" d="M93.8 31.3H6.3A6.3 6.3 0 010 25V12.5C0 9 2.8 6.2 6.3 6.2h87.5c3.4 0 6.2 2.8 6.2 6.3V25c0 3.5-2.8 6.3-6.3 6.3zM84.3 14a4.7 4.7 0 100 9.3 4.7 4.7 0 000-9.3zm-12.5 0a4.7 4.7 0 100 9.3 4.7 4.7 0 000-9.3zm21.8 48.4H6.3A6.3 6.3 0 010 56.2V43.8c0-3.4 2.8-6.2 6.3-6.2h87.5c3.4 0 6.2 2.8 6.2 6.3v12.5c0 3.4-2.8 6.2-6.3 6.2zm-9.3-17.2a4.7 4.7 0 100 9.4 4.7 4.7 0 000-9.4zm-12.5 0a4.7 4.7 0 100 9.4 4.7 4.7 0 000-9.4zm21.8 48.5H6.3A6.3 6.3 0 010 87.5V75c0-3.5 2.8-6.3 6.3-6.3h87.5c3.4 0 6.2 2.8 6.2 6.3v12.5c0 3.5-2.8 6.3-6.3 6.3zm-9.3-17.2a4.7 4.7 0 100 9.3 4.7 4.7 0 000-9.3zm-12.5 0a4.7 4.7 0 100 9.3 4.7 4.7 0 000-9.3z"/>
</svg>
