<svg
    class="chalkboard_icon"
    xmlns="http://www.w3.org/2000/svg"
    viewbox="0 0 100 100">
    <path fill="#333" d="M47.8 12.4a21.7 21.7 0 00-21.7 22.9l-.3.1H6.5c-3.6 0-6.5 3-6.5 6.5v39.2c0 3.6 3 6.5 6.5 6.5H63c3.6 0 6.6-3 6.6-6.5v-7.8h13a17.4 17.4 0 003.5-34.4 13 13 0 00-19.4-15.5 21.7 21.7 0 00-18.9-11zM6.5 42H63v5.6l-3.8 3-9 7.2-5.4 4.2-1.6 1.3a48.6 48.6 0 01-3.8 3l-.4.2-.9.5c-1.2.7-2.2 1-3.1 1.1a4 4 0 01-.9 0 11 11 0 01-4-1.9L28.7 65l-2.3-1.8-.2-.2-1.3-1-4.6-3.7-7.1-5.6-6.6-5.2zm0 14a828.1 828.1 0 0115.2 12c3 2.4 7.8 6.7 13 6.6 2.7 0 5.2-1 7.4-2.4l.4-.2.7-.4a31.2 31.2 0 002-1.5l2-1.7A669.4 669.4 0 0163 56.1h.1v25H6.5z"/>
</svg>
