<svg
    class="chalkboard_icon"
    xmlns="http://www.w3.org/2000/svg"
    viewbox="0 0 100 100">
    <path fill="#333" d="M43.6 90L34 87.1c-1-.3-1.5-1.4-1.2-2.4L54 11.4c.3-1 1.3-1.6 2.3-1.3l9.6 2.7c1 .3 1.5 1.4 1.2 2.4L46 88.6c-.3 1-1.3 1.6-2.3 1.3zM25.8 72.3l6.8-7.3c.7-.7.6-2-.2-2.7L18.3 50l14.1-12.5c.8-.7.9-1.9.2-2.6l-6.8-7.3c-.7-.7-2-.8-2.7 0L.6 48.5c-.8.8-.8 2 0 2.8l22.5 21c.8.8 2 .8 2.7 0zm51 0l22.6-21c.8-.8.8-2 0-2.8l-22.5-21c-.8-.8-2-.8-2.7 0l-6.8 7.2c-.7.8-.6 2 .2 2.7L81.7 50 67.6 62.4c-.8.8-.9 2-.2 2.7l6.8 7.3c.7.8 2 .8 2.7 0z"/>
</svg>
