<svg
    class="sign_icon"
    xmlns="http://www.w3.org/2000/svg"
    viewbox="0 0 100 100">
  <path fill="#333" d="M43 0A43 43 0 0 0 0 43a43 43 0 0 0 43 43 43 43 0 0 0 22.5-6.4L82.9 97a10 10 0 0 0 7.1 3 10 10 0 0 0 10-10 10 10 0 0 0-3-7.1L79.6 65.5A43 43 0 0 0 86 43 43 43 0 0 0 43 0zm0 10a33 33 0 0 1 33 33 33 33 0 0 1-33 33 33 33 0 0 1-33-33 33 33 0 0 1 33-33zm.3 8c-8.9.1-17.7 4.8-22.3 13.3A25 25 0 0 0 45.3 68c10-.7 17.6-6 21-14.6 1.6-4.2 2.1-9.6 1.3-14.3V39h-24v9.3h13.8-.1C56 54 51.5 57.6 45 58.2a15.1 15.1 0 0 1-15.5-20.7c4-9.5 16-12.6 23.6-6l.2.3L57 28l3.6-3.6-.1-.1a25 25 0 0 0-17.2-6.4z"/>
</svg>
