<svg
    class="sign_icon"
    xmlns="http://www.w3.org/2000/svg"
    viewbox="0 0 100 100">
    <path fill="#333" d="M53.7 7.7c-1.8 0-3.6 2-4.6 5.3-3.3 13.6-12.7 26.8-21.6 31-2.3 1-2.4.2 1.9 12 4.2 11.7 3.3 10.4 7.3 9.6 9.8-2 24 2.1 34.7 9.7 4.4 3.2 7 3 8-.1l.6-1.3-4.6-12.3L71 49.3l1.6-1.3c5.4-5.1 2.4-13.4-5-14-1.3 0-2.3-.3-2.3-.3l-8.8-24c-.8-1.5-1.8-2-2.8-2zm24.5 1.5-10 17.4 5.8 3.3 10-17.3zm18.5 19.2L78 35.2l2.3 6.3L99 34.7zM21.1 46.8c-3.2.8-6.2 1.9-9.2 3.2l-9 3.2-1.2 1.3c-.6.8-1.3 2-1.4 2.7L0 58.5l2.4 6.7c3.6 10 5 11 12.3 8.1 4.5-1.6 3.6-2.2 9.3 6.2 7.6 11 8.3 11.7 9.4 12.2 3.4 2 7.8-.8 7.8-4.8 0-1.6 0-1.7-10.2-16.2L29 68l-3.8-10.4a150 150 0 0 0-4-10.7Zm60 1.5L79 54.6l18.8 6.8 2.3-6.2Z"/>
</svg>
