<?xml version="1.0" encoding="UTF-8" standalone="no"?>
<svg xmlns="http://www.w3.org/2000/svg" xmlns:xlink="http://www.w3.org/1999/xlink" preserveAspectRatio="xMidYMid meet" id="svg8" version="1.1" viewBox="0 0 100 100" height="100" width="100">
  <g id="iconinstagram" transform="translate(-135.516 1.291)" display="inline">
	<circle cx="185.516" cy="48.709" id="iconinstagram_background" r="50" display="inline" fill="none" stroke-width=".871" opacity="1"/>
	<path d="M185.517 13.683c-9.505 0-10.698.041-14.432.211-3.726.17-6.27.76-8.495 1.626-2.302.894-4.254 2.09-6.2 4.036-1.947 1.946-3.142 3.898-4.04 6.2-.867 2.226-1.458 4.77-1.625 8.494-.167 3.734-.211 4.927-.211 14.433 0 9.505.042 10.694.211 14.428.172 3.726.762 6.27 1.626 8.495.895 2.301 2.09 4.254 4.037 6.2 1.945 1.946 3.898 3.145 6.198 4.04 2.227.865 4.771 1.455 8.496 1.625 3.734.17 4.926.212 14.43.212 9.507 0 10.696-.042 14.43-.212 3.726-.17 6.272-.76 8.499-1.626 2.301-.894 4.251-2.093 6.196-4.04 1.947-1.945 3.142-3.898 4.04-6.199.86-2.226 1.45-4.77 1.625-8.495.168-3.733.212-4.923.212-14.428 0-9.506-.044-10.699-.212-14.432-.175-3.726-.765-6.27-1.626-8.495-.897-2.302-2.092-4.254-4.04-6.2-1.946-1.947-3.893-3.143-6.197-4.036-2.232-.865-4.776-1.455-8.502-1.626-3.734-.17-4.922-.211-14.43-.211zm-3.14 6.307c.932-.002 1.972 0 3.14 0 9.345 0 10.453.034 14.143.201 3.413.156 5.265.726 6.499 1.206 1.633.634 2.797 1.392 4.022 2.617s1.983 2.392 2.619 4.025c.479 1.233 1.05 3.085 1.205 6.497.168 3.69.204 4.798.204 14.139 0 9.34-.036 10.449-.204 14.138-.156 3.413-.726 5.265-1.205 6.497-.634 1.633-1.394 2.796-2.62 4.02-1.224 1.226-2.387 1.984-4.021 2.618-1.233.482-3.086 1.05-6.499 1.206-3.69.168-4.798.205-14.143.205-9.346 0-10.453-.037-14.143-.205-3.412-.157-5.265-.727-6.5-1.206-1.632-.635-2.8-1.393-4.024-2.618-1.225-1.225-1.983-2.389-2.62-4.023-.478-1.232-1.05-3.084-1.205-6.497-.167-3.69-.2-4.798-.2-14.144 0-9.347.033-10.449.2-14.139.156-3.412.727-5.264 1.206-6.498.634-1.633 1.394-2.8 2.619-4.025 1.225-1.225 2.392-1.983 4.025-2.62 1.234-.48 3.087-1.05 6.5-1.206 3.228-.146 4.48-.19 11.002-.197zm21.823 5.811a4.2 4.2 0 10-.001 8.402 4.2 4.2 0 00.001-8.403zm-18.683 4.908c-9.926 0-17.974 8.048-17.974 17.974s8.048 17.97 17.974 17.97 17.971-8.044 17.971-17.97c0-9.926-8.045-17.974-17.972-17.974zm0 6.307c6.443 0 11.667 5.223 11.667 11.667 0 6.443-5.224 11.666-11.667 11.666-6.444 0-11.667-5.223-11.667-11.666 0-6.444 5.223-11.667 11.667-11.667z" id="iconinstagram_logo" display="inline" fill="#262422" fill-opacity="1" stroke="none" stroke-width=".729" stroke-opacity="1"/>
  </g>
</svg>
