<svg class="usp_cacti" xmlns="http://www.w3.org/2000/svg" viewBox="0 0 250 351">
  <path fill="#de7c61" style="fill:var(--hb_orange-dark);" d="M91.03 287.2h-7.4v4.8l-.8 4.5h8.2l2.4 12c3.3 15.8 3.3 15.4 6 10.2l2.5-4 3.2 4.4 3 5.6-5.4.4c-3.6 0-5.2.4-5.2 1.7 0 1.6 6.8 24.2 6.8 24.2h43s6.3-21.4 6.3-23.4-.8-2.5-5.2-2.5h-5.4l2.8-5.2c3-5.7 4-5.7 6.1-.8 2 3.2 4 4 4 1.2l2-13 2-10.8h3.7c3.3 0 3.3 0 3.3-4.9v-4.4zm15.7 26.2h13.7l-2 4-3.7 6.1c-1.2 2-1.6 2-3.2-1.6l-3.2-6zm24.2 0h13.3l-2.8 5.3c-3.2 6-4 6.8-4.8 6l-3.3-6zm-5.3 1.2 3.3 5.3 2.8 5.2h-12.5l2.8-5.2c1-2 2.2-3.7 3.6-5.3z"/>
  <path fill="#333" style="fill:var(--hb_grey-darkest);" d="M103.43 260v3.3l.8.8h1.6l-1.6 15.4.8.8 6.5 1.2h.4v-3.2c10.5.8 14.1.8 26.7.4l.8 2.8c2.7-.2 5.4-.6 8-1.2v-.4c-1-4-1.8-8-2.4-12.1h-.4l-6 .8-.8.4.8 5.2-12.2-.4 1-10c0-.5 0-.9-1-.9h-4v11h-10.9l.4-8.2h3.6v-5.2c-3.2 0-6.8 0-11.3-.8h-.8zM92.13 77h.8v.5l22.2 1.6-.8-4-8-.5v-5.2c13.7 1.2 21.8 1.2 34.7-.4l.4 4 10.5-2-2-12.1h-1.2l-9 2 1 4a129 129 0 0 1-34 0l.4-4.8c3 .2 6.1.4 9.2.4l1-3.2h-.5a143 143 0 0 1-17.4-2.5v4c-1.3 5-2.2 10-2.8 15h-1.3c-1.2-.4-1.6 0-1.6 0zm6.5 69.6a43 43 0 0 0 3.6 10l1.2.5 6-.4c0-.8 0-1.7-.7-2.5h33.1l-.8 2.5c2.6.2 5.1.4 7.7.8.8 0 1.6-2 2.4-5.3.6-2.2 1-4.5 1.2-6.9l-.4-4-.4-.4a8 8 0 0 0-1.2-2c-2.8-3.7-8.9-5.3-15.8-4.9-5.6 0-8.9 2-10 5.3l-.9 1.6c-.3-.7-.7-1.4-1.2-2-1.6-1.6-4.4-2.8-9.3-2.8-4.8-.4-9.3.4-12 2.4l-2 2.8a8 8 0 0 0-.5 5.3zm9.3 60.6v.4c1 7.2 1.4 14.5 1.6 21.8l4.4.4V227c7.7.8 15.4.8 25 0l-.3 3.2 6.4-.4v-19l3.3-.8v-4h-.4c-4.4.1-8.7.4-13 .8v3.2c0 .8 0 1.2.8 1.2h3.7v11.3l-11.3.4-.8-11.3-4 .8.3 10.5-10-.4-.5-10.5h4v-4l-8.4-1.2zm-1.2-17.8a250 250 0 0 1 2 10.9l4 .4.8-.4-.4-2.8 13-6.9c4 2.8 8 5.3 14 8v3.3l6.6-.4v-10h-6.5v2.3l-11.2-4.8 12-4.9v2l7-.3.4-9.7-.8-.4h-6.6v2.8c-6 2.4-12 6-16.2 8l-12.5-8V176h-.8l-6.5-.4c.8 3.2 1.4 6.4 2 9.6h5.3v-1.6l9.3 4.5-8.9 3.6-.8-2.4h-5.2zm-7-137.8v.4l1 .4c2.6.4 5.3.7 8 .8h.4v-2c8-1.2 13.7-4.4 18.6-6.9l1.2-.8 9.3-.4v.4l.4 2.5h.8c2.4-.4 5-1 7.3-1.7-.8-3.4-1.8-6.7-2.9-10h-.4c-1.8.6-3.7 1-5.6 1.2l-.4.4V39h-8l-8.2-4-8-3.3v-2.4c-1.3 0-2.5 0-4-.8h-.9l-2 6-.9 2.5.8.8c2 .3 3.8.5 5.7.4l.4-2.4 13.3 5.2-8 3.2c-2 .8-4.5 1.7-7.7 2l.4-2.4h-.4c-2.2-.3-4.4-.9-6.5-1.6h-.4Zm4.5 120h.8c2.2 0 4.4.2 6.5.4l-.4-2.8c11 .8 17.8.4 30.3 0v3.6l7.7-.4.4-10.5h-7.7v3.2l-31-.4-1.3-3.2h-6zm-7.6-42 .4.4h9.7v-2.4h36.3l-.8 2.4.8.4 9.3-.8 1.2-9.3c0-.4 0-.8-1.2-.8l-9.3.8v2.4a285 285 0 0 1-37.2 0v-2l-.8-.8h-9zm-3.3-38 1.2.4 10.1.4V90c17.8.8 20.6.8 38-.8l-.4 2.8.8.4 10.1-1.2v-10h-.8l-9.7.7v2.8a146.2 146.2 0 0 1-37.6 0l-.8-2.4-8-.8h-1.2l-1.6 9.7zm14.7 153.5v10.5l4.8.9v-3.3c4 0 20.2.8 26 .4v3.3h6l.7-.4-1.2-17.8 2-.8-1.2-4-12 2 .3 4 5-.4v9.3h-24.8l-.4-4h-4.8zm-14.7-139.8 1.2 9.7 1.6.9c3.1-.2 6.2-.4 9.3-.4l-.4-2.9c15.8.8 22 .8 38 0l-.4 2.9h10.5c-.4-5.9-1-11.6-1.6-17.4l4-.8-1.2-2.9-1.6-.4-17.8 1.7c-1.2 0-1.6 0-1.6.8l.8 3.2s0 .4.4 0l7-.4 1.1 8.9c-21 1.2-17 1.2-38.4 0v-3.3h-.8l-10 .4zm13 40.9v-2.5c0-.8.8-1.6 2-2.4 1.2-.8 3.2-.8 5.6-.8 3 0 4.5.8 5.7 1.6l.8.4a9 9 0 0 1 1.6 5.3v2.4l-15-.8zm21 0V142c.8-1.2 1.6-2.4 3.2-2.8l4-.8 4 .4 3 1.6c.5.7 1 1.5 1.1 2.4v7.3h-15l-.3-3.2z"/>
  <path fill="#61af76" style="fill:var(--hb_green);" d="M129.73 2c-.8 0-2 5.3-4 11.4-4 9.7-2.9 11.3-5.7 11.3l6.4.8 1.7-11.3c1-4 1.4-8 1.2-12.1zm-42 12c-1.2 0 1.6 7.3 4.4 11.8 4 5.2 2.4 7.2 2.8 8.8l4-5.2-5.2-8a36.6 36.6 0 0 0-6-7.4zm72 13c-.5 0-2 1.6-4 4.8l-3 5.3 2 3.2 3.3-6.9c2-4 2.4-6.4 1.6-6.4zm-85.9 25.4c-3.6 0-2 2.4 5 5.3 4.3 1.6 6 2.8 6 5.2l2-8.9c-1.3.8-3.3.8-7.3-.4-2.4-.8-5.7 0-5.7-1.2zM178.03 90l-7 .8-6.8 1.2.4 5.7 7-4zm-105 10.5c-1.7 0 .3 2.4 6 6.5l7.2 5.2-1.2-6.4-6-2.9zm102.1 38c-.8 0-2.8.4-5.6 2.4l-6 2.8-1.7 7.3 7.3-5.7c5.2-4 7.2-6.8 6-6.8zm-88.9 3.6c0 .4-3.2.8-6.8.4l-6.5-.4 7.7 4 7.3 3.7zm-.8 44c-1.6 0 0 2.5 5.3 6.1 3.6 2.8 5.2 4 6.5 6.9l-2.6-10.1c0 .8-2.4 0-4.8-1.2-1.3-.8-2.6-1.4-4-1.6zm72.8 4.1-2 6.5 9.6-2 9.7-2-8-.5c-4.9 0-9-1.2-9.3-2zm-2.5 30.3-.8 10.1 6-4 6.2-4-5.7 1.1c-4 .8-5.3-6.8-5.7-3.2zm-57.3 0c-.8 4-3.3 3.6-4.9 3.2-6-1.6-6 2 0 4 2.8.5 5.3 2.5 5.7 4.1zm67 40.4h-3.6l-8.9.8.8 6.9c0-2 2.8-2.9 10.5-4 9.3-1.7 9-4.1 1.2-4.1zm-78.3-.8c-2 0-.9 2.4 4 4.8l5.2 4 1-6.8c0 .8-3 0-5.4-.8-2.4-.8-4.8-.4-4.8-1.2z"/>
</svg>