<svg xmlns="http://www.w3.org/2000/svg" id="svg51" width="250" height="350" version="1.1" viewBox="0 0 250 350">
  <g id="cacti_value">
	<path id="path15" fill="#de7c61" d="M83.4 286.2v9.7h6.8l1.7 8.8c1.6 7.3 5.2 15.4 7.2 15.4l3-2.8 2.3-2.9 2.4 2.9 2.8 3.2 3-3.2 2.7-2.9 2.4 2.9 2.8 2.8c.5 0 1.7-1.2 3-3.2l2-2.9 2.7 3.3 3 3.2 2.3-3.2 2.8-2.9 2.8 2.9 2.5 3.2 2.4-3.2 2.8-2.9 2 2.9c2.5 3.2 4 3.6 5 1.6l2.7-12.1 2.4-10.1 4-.4h3.7v-10.1zm32 32.3l-2.9 4-2.5 3.3-2.8-3.7-2.8-3.2-2.4 3.2c-2 3.3-2.5 3.3-4 1.6-2.5-2.4-2.5-2.8.7 13l4.5 13.3H146l4-10.5c2.5-13 2.5-13-.8-17l-2.4-2.8-2.8 2.8-2.4 3.3-2.9-3.3-2.4-3.2-2.8 3.2-2.9 3.3-2.4-3.7-2.4-3.2-2.8 3.2-2.9 3.7-2.4-3.7z"/>
	<path id="path17" fill="#333" d="M166.2 139.5l-2 2.4v1.2l.8 1.7-11.7 6.8v2.8h.4c.8 0 1.6 0 2.4-.8v17.8l-2.8-1.2v2.8a71 71 0 019.3 8.1l.4-.8 1.6-4.8-.4-.8-4-1.7v-8c3.2.1 6.4.4 9.6.8v-4l-9.7-.5v-8.9l6.5-2 .8 3.6c0 .4 0 .9.8.9l3-1.7a39 39 0 00-4-12.9zm36.4 4a33 33 0 00-9.7-4l-.4 1.2c-.2 2.4-.2 4.9 0 7.3v.4l1.6.4c0 12.1 0 19 1.2 32.3h-1.7v1.2c0 2.5 0 5.7.8 9 0 .7.4 1.1.8 1.1 2.8-1.6 5.2-4 8-6.4v-1.2c-.8-2-1.5-4-2-6.1l-.3-.4c-.9 0-1.7.8-2 1.2-.9-4-.5-8.9-.5-12.1l3.3-.4c1.6 4 3.2 9.3 6.8 12 0 .5 0 .5.4 0l4-3.5.5-1.3v-2.4c-1.6 0-2.9.8-4 1.2l-4-6.8c2.3-.8 4-1.7 5.1-3.3l1.7-2v-3.2l-2-3.7c-1.9-4-4.6-7.6-8-10.5zm-22.3-6.4c-1.6 0-2.8 1.2-4 3.2l-1.6 11c-.6 10.4-.6 21 0 31.4.8 5.7 2.8 11.3 6.5 12.2l2.8-.5 2-2.4a40 40 0 003.2-12.1l.8-14.5a93 93 0 00-4.8-25.5 10 10 0 00-1.6-2c-1-.7-2-1-3.3-.8zm21.5 13.3c1.6.4 2.8 1.6 4 2.8l1.6 4c0 2.1 0 3.3-1.6 4.1l-1.6 1.2c-1.9.2-3.8.2-5.7 0-.4-4-1.2-8-.8-13.3a9 9 0 014 1.2zm-20.6-3.6c.8 0 1.6 0 2 .8l.8.4 1.2 2.8.4 2 .8 4c1 7 1 14.1-.4 21v.9l-1.6 4c-.8.8-1.6 1.2-2.4.8-2 0-3.3-2.4-4-5.6v-25c0-2 .3-3.3 1.1-4.1.4-.8 1.2-1.6 2-1.6z"/>
	<path id="path19" fill="#333" d="M132.6 121.7c-4.8-.4-9.2-2.8-14-4.8l-.9.8-2 8.9v.8h2a121.3 121.3 0 000 34l-2.4.3c.4 2.8.8 5.7 2 9 0 1.1 0 1.5.4 1.1l12.1-5.6c0 .8 0 1.6.8 2l.5.8 2.4-.8v-.8c-2.4-3.7-1.2-8.1-.4-12.1l-3.3-.9s-.8.5-.8 1.3l-.4 4c-2.8 0-5.2.8-8 1.2a83 83 0 010-14.1h8.8v-4.9l-.8-.4h-8v-13.7l7.2.8c0 1.9 0 3.8.4 5.6h3.3v-.4c-.4-3.2-1.3-6.8.8-10.9v-1.2zm-66.2-13l-3.2 2.5v1.6c-.4 12.2-1.2 18.6-2 23.5l-4 25H56v.8l-1.6 8.1v2l7 1.2.3-1.6c.3-3.2.4-6.4.4-9.7h-1.2l-.5.4 1-5.2.3-6H64l4.8.7.8 11.7H68v1.3c-.4 3.5-1 7-1.6 10.5a86 86 0 007.3 1.6v-1.6c.4-4 .6-8.1.8-12.2H73a408 408 0 00-6.5-54.5zm36.4-3.1c-2.4-.6-4.9-.8-7.3-.8l-.4 1.6-.8 15h2.4c-.8 9.6-1.4 19.3-1.6 29 0 6.5.8 13 2 18.6l2.4 6c.8 1.7 2 2 3 2 1.1-.3 2-2 2.7-4.8l1.2-9.3c.6 5 1.6 9.8 2.8 14.6l5-2.4v-2c-1-3.5-1.7-7-2-10.6l-2 1.2c-1.4-7.2-.6-33.5 0-38.3l2.3-.4c.3-3.9 1-7.6 2-11.4-2-1-4.3-2-6.5-2.8l-.8 1.2c-.7 4.2-1.2 8.4-1.6 12.6h1.6c-1 11-1.7 22-2 33-1.2 3-2.4 4.1-3.6 4.5-.8 0-2-1.2-2.5-4-.8-2.8-.8-6.9-.8-11 .4-8.7 1-17.5 2-26.2v-1.2a244 244 0 012-14.5zm-55 15v1.5a25 25 0 011.6 6.9l2-.4c-.2 10.4-1.9 20.7-4.8 30.7-2.4-12.1-4-18.6-4.4-29h2.4v-1.7c0-1.6 0-3.6-.8-5.7l-.8-.8c-2 .6-4.3 1-6.5.8v.8l-.4 4.9v.8h1.6c.4 12.1 4 20.2 6.5 37.2v1.2h3.2c7.3-17.8 7-23.5 7.3-40.4l1.6-.8v-.8c0-2.5-.8-4.9-1.6-8.1 0-.8-.4-1.6-.8-1.2l-6 3.2zm36.4-16.3a20 20 0 00-7.7 2v2c.5 4.7 1 9.2 1.2 13.8l2-.8 1.3 44.9-2-.4v1.2l-1.3 12.9c4.4 0 8.7-.6 13-1.6v3.6l.4 1.6 2.4-2v-2a565 565 0 01-1.6-25l-2 .8v9.2h-.5c-1.8.5-3.7 1-5.6 1.3 0-21-.8-23.5-1.2-45.7h2l.4-1.2-.8-15.4zM68 146.8l-6-.4 2-13c0-2.4.8-5.6 1.6-9.3 2 7 2.8 22.7 2.8 22.7z"/>
	<path id="path21" fill="#333" d="M167.4 192.4a144 144 0 00-16-5.2l-.5 1.6c-.6 5-1 10-1.3 15h2c-.7 14.5-.3 40 1 54.5l-2-.4v1.2c.3 5.1 1 10.2 1.5 15.3 5-2.3 9.6-5 14.1-8l1.6 5.6c1.2 0 2-.8 3.3-1.2v-2c-2-7.5-3.4-15.3-4-23h-3v8.8c-2.6 1.2-5.3 2.2-8 3.3l-1.2-23 8-1.7-.3-7.2-8 .8c0-6 0-14.2.7-23.5l7.3.8v10.6l2.4.8v-.8c.2-7.5 1-15 2.4-22.3zm-56.5-7.2c-1.3.4-1.7 1.2-2.5 2.4-.6 1.3-1 2.6-1.2 4l-.8 4c-1.4 11.7-2 23.5-1.6 35.2 0 11.2.3 22.4 1.2 33.5.8 3.3 1.2 6.1 2.4 8.1.4 1.2 1.2 2 2.5 2.5 3.2 1.2 6-4 8-13 4.7-21.3 4.7-43.3 0-64.6-.7-3.6-2-7-4-10.1-1.2-2-2.8-2.9-4-2zm-29.5 18.1l-6 3.3v.8l.7 6 .4.4 2-.4-.8 33.6-2.4-.4v.4l-.4 5.6v.8l6 2.5.5-.4c.8-2.5.8-4.9.8-7v-.7h-1.7c0-12.1 1.3-22.2.5-34.8a390 390 0 014 46l3.2 1.3c3.3-10.1 7-43.6 6.5-53.3a347 347 0 01.8 45.6h-1.2v.8c-.5 3.4-1.2 6.8-2 10.1l6 3.7.4-1.6c.8-3.7 1.5-7.3 2-11l-2-.8c.8-10.5.4-35.1-.8-45.2l2-.4V207c-.5-4.4-1.3-8.7-2.4-13l-6 3.7v2c2 13-2 42.4-3.3 49.3a326 326 0 00-6.8-45.7zm51-22.6l-8.2 2.8v2l.8 15.8 2.8-.8v59.8h-2.4l-.4 1.2v15.8c2.8.3 5.6.5 8.5.4l.4-1.6-.8-17-2.5.4-.4-60.6 1.7 15.3 8.4 61.5c0 1.2.5 2 1 2l4-2v-2.9c-1.7-23-1.7-55-.9-71.5l2 .4v-1.2c.2-5.4.4-10.8.8-16.2-2.5-.7-5-1.2-7.7-1.6l-.4 1.6v15.4l2 .8c0 16.2 0 43.2 1 58.6-3.4-23-6.6-41.6-9.4-75.6zm39.1 15.8l-.9 1.2a105 105 0 00-.8 11.3h1.3c1.2 10 5.2 21.8 6.8 28.3l.4 12.5-2.4 2c.3 3.1 1 6.3 1.6 9.3l8.1-4.8-1.2-6.9v-.8l-2 .4h-.8v-12.1l.4-2c2.4-7.7 3.6-14.6 5.6-21.9h2v-.4c0-2 .4-4 1.3-5.6v-1.2l-7.3-2.5-.8 1.2c-.5 2.4-.8 4.9-.8 7.3l.4.4h2l-2.4 11.7-2 8.1c-1.3-5.6-4-13.7-4.5-21.8h2v-.4c.3-3 1-6 1.6-8.9v-.4l-7.2-4zm-59 6c.8-.4 1.6 0 2.4.8.8.8 1.6 2.5 2 4.9.4 2.4 1.2 6 1.2 9.7 1 11.2.8 22.4-.8 33.5-1.2 4.9-2.8 7.3-4.4 6.9-1.2 0-2-1.2-2.9-2.4l-1.2-5.3a147.9 147.9 0 011.6-46c.5-1.3 1.3-2 2-2z"/>
	<path id="path23" fill="#61af76" d="M99.1 85.4c-2.4.8-4 6.8-4.4 9.3l-.8 1.6 4.4 1.2v-1.2c-.8-2.9.8-11 .8-11zm85.7 14.5v2.8c0 2.5-.8 6-3.2 9-2 2.8-3.3 6-3.3 7.2 0 1.2-.8 2-2.8 1.6-3.6 0-3.6.8 0 4 1.6 1.7 3.2 4 3.2 6.1l.8 1.6a50 50 0 0128.3 6.9c8.1-3.2 8.1-10.1 13.4-10.5 3.2 0 3.2 0 .8-2.4-4-2.9-7-16.2-4-20.2 1.5-3.3 1.1-3.7-3-1.7-2.7 1.3-4 0-8-1.2a40 40 0 00-11.7-.8c-2.8.4-6.5 0-8-1.2zm-52 2l-12.7 5.3c.4.8 4 2.8 4 4 1.3-2 9.8-9.3 8.6-9.3zm-92.3 0c-.4 0 0 1.6 2.5 4.9l4.4 5.6c1.2 1.2 5-2 6.5-3.6-2 .4-5.7-.8-6.5-2.4-2-1.8-4.3-3.2-6.9-4zm109.1 27.5s0 1.6 2 4.8l4.1 4.5c1.2-1.6 4-2.8 5.3-4-6.5 0-4-2-9.3-4.9l-1.7-.4zm72.4 17.4l-4 2.4-2 .8 1.5 4c0-.8.8-1.2 1.6-2 2.5-2.4 4-5.2 3-5.2zm-194.8.4l-.8.4c-.8 1.6 2 2 4.5 3.2l5.2 2-.8-4c-1.2.8-6-1.6-8-1.6zm116 8.9c-2.5-.4 5.6 8 5.6 8 .4.4.4.4 1.2-4.8-1.2.8-2.8-1.6-6-3.2a4 4 0 00-.8 0zM48.6 177l-2 4-6.5 7.7 9.7-6c2-1.3 2-2.9 3-3.7zm163 7.2l-4.6 7c1.6-.5 2.4 0 4 1.1 5.3 3.3 7.3 2.5 3.3-1.6-2.8-3.6-4.9-2.8-2.8-6.5zm-142.4 34c-.8 3.2-1.6 2.8-7.2 2.4 0 0-5.7-1.2-6.5.4 0 1.2 5.7 3.2 5.7 3.2 4 2 5.6 2.5 7.2 8.1v-3.6c0-3.2 0-6.9.8-10.5zm130.5 9.7v1.2l-.4 6c1.2-1.2 8.1 2.5 9.7 2.5h3.7l-4-4c-1.3-1.3-8.2-4.1-9-5.7zm-124.4 31c0 1.3-6 3-8 3-1.3 0-2.5.7-3 1.5-.7 1.2 1 1.2 4.5.8 2.5-.4 10.1-2.4 11.3-2-.8-1.2-4-2-4.8-3.2zm119.2 4.1c-1.2 2-4 2.5-4.9 4 1.3 0 7 2.9 9.7 3.7 7.3 1.6 8.1.4 1.7-3.2-2-.8-6-3.7-6.5-4.5z"/>
  </g>
</svg>
