<svg class="usp_cacti" xmlns="http://www.w3.org/2000/svg" viewBox="0 0 250 215.8">
  <path fill="#de7c61" style="fill:var(--hb_orange-dark);" d="M82.96 151.6v8.8h4c4.9 0 4-1.6 7.7 15.4l1.2 5.3h30.3l30.7-.5 2-9.6c2-9.3 2.4-9.7 5.3-10.1 2.4 0 2.8-.9 2.8-4.9v-4.4zm14 33.5 5.8 5.7c4.8 4.8 6 5.6 9.7 5.6h4l-5.7-5.7c-4.8-4.8-6-5.6-9.7-5.6zm27.6 0 5.6 5.7c4.9 4.8 6 5.6 9.3 5.6l4-.8-4.8-5.7c-4.4-4-5.2-4.8-9.7-4.8zm14 0 5.8 5.7c6 5.6 8.5 6.8 9.7 3.6.4-1.6 0-3.2-2.4-5.7-3.3-3.2-4-3.6-8.1-3.6zm-22.1 0h-.8l-4 .4 4.8 5.7c4.4 4.8 5.3 5.2 9.7 5.2h4.4l-5.6-5.7c-4.5-4.4-5.7-5.6-8.1-5.6zm-16.6 15.3 1.7 7.7 3 7.7h42.9l3.2-7.3c2-3.6 1.7-7.2 1.7-7.6l-26.3-.5z"/>
  <path fill="#61af76" style="fill:var(--hb_green);" d="m180.96 5.7-3.1 13.7c-1.6 7.3-4.8 11.8-8 13.8l-3.7 2c10.8.8 21.6 1.9 32.3 3.2l-9-12.9c-3.4-6.3-6.3-13-8.4-19.8zm-56.4-3.6c-3.7 4-7.6 8-11.7 11.7l-18.6 16-7.3 5.7c12.5-1.2 24.2-1.6 37.2-2h1.6l36.4 1.2-6.5-4.9a647.4 647.4 0 0 1-30.7-27l-.8-.8zm-55.4 4c-.8 0-4 8.9-7.6 15.4l-5.3 10c-1.2 1.9-2 4-2.4 6.1v1.2c9.7-1.5 19.4-2.8 29-4-6.8-2.8-11.2-8.9-11.2-18.6 0-4.8-1.3-10-2.5-10zm-38.8 7.7h-.4c-.8.8-1.6 4-2.8 7.3l-4 13.3c0 2.4-.8 5.6 0 8.9l15.3-2.4 11.3-1.7c-7-4-12.5-10.5-15.3-18.1-1.2-4-2.8-7.7-4-7.3zm190.7.8c-.8 0-2.8 4-4.4 8.5l-4 8-7.7 8.1 7.7.8 14.5 2.9c.4-6.5-2.8-19.4-2.8-20.2-1.2-4-2.4-8.1-3.3-8.1z"/>
  <path fill="#333" style="fill:var(--hb_grey-darkest);" d="M36.46 51.4c-4 .8-7.7 2-11.3 3.6v.8l.8 3.6 3.2-.8a245 245 0 0 1 4 25l-2.8 1.3.9 4.4c3.5-1.5 7.2-2.8 10.9-4l-.4-4-4 1.6-1.8-10.1a72 72 0 0 0 8-2c4-1.7 6-5.3 5-10.6-.5-4-2-6.4-4.1-8l-4-1.2h-4zm51.3-5.3-11.3 1.2v.8l1.6 4h2l2 24.3h-2.4v5.7l9.7-.8-.8-4.9h-2.4l-.8-9.7h4c2.6 5 5 10 7.3 15h5.3l.4-1.7-.8-4.4h-3.3l-5.2-9.3a5 5 0 0 0 4.4-2.8c.8-.8 1.2-2 1.2-2.8l.4-4c0-2.1 0-3.3-.8-4.5-1.6-4-4.8-6-10.5-6zm-17.4.8c-6.5 1-13 2.2-19.4 3.7l1.3 4h2.4l3.2 24.2h-2.4l.8 4.9 16.2-2 .4 2 4-.8-1.6-9.7h-3.3l-.4.8v3.2l-9.7 1.2-1.3-10.5 9.7-1.2-1.2-4-9 1.2-1.5-10.5 9-1.2.7 4h3.7c-.5-3.1-1-6.2-1.7-9.3zm42-.8a8 8 0 0 0-8 5.7l-.4 4c0 1.6.4 3.2 1.2 4 0 .9.8 1.7 1.6 2l4 2.9 6.5 4c.8.8 1.2 2 1.2 3.3 0 1.6 0 2.8-.8 3.6-.8.8-2 1.2-3.6 1.2l-5.3-.4-.8-4h-3.6v.4l1.6 10h2.8l.4-.3v-2l5.7.8 4-.4c2.9-1.7 4-4.5 4-9.3 0-2.5-.3-4-1.5-5.7l-12.6-8.9a4 4 0 0 1-.4-2v-2c1.2-1.6 2.8-2.4 5.7-2.4l3.6.4.4 5.6h3.2V46.5l-2.8.8c-2-.7-4-1.1-6-1.2zm25 .8c-2 0-3.5 0-4.7.8-4 2.4-6.5 8.1-6.5 16.2 0 5.6.8 10 2.8 13.3 2 2.8 4.5 4.5 8 4.5 7 0 10.6-6.1 11-17.4 0-6-.8-10.5-2.4-13.3a8 8 0 0 0-3.2-2.9 8.6 8.6 0 0 0-5-1.2zm59 2.4h-4.7c-4 9-8.1 19-10.6 28.3l-2.4.4v4.9h9v-4l-.5-.5h-2.4l2-6.4c3.2 0 6 .8 9.3 1.2l1.2 6.4h-2.8v4.5c3 .2 6 .4 8.9.8v-4.4h-1.7c-1.7-9.3-4-22.7-5-30.4v-.8zm-34.6-1.6-9 .8c0 1.4-.2 2.7-.3 4h3.6c-.8 7.3-1.2 16.2-1.2 24.3h-3.2v4l.4.9h9.2v-5.3h-3.3c0-8 0-17 .8-24.2 2.9 9.3 6.5 19 9.3 29.9h.4l5.3-.4c0-9.3 1.2-20.2 2-28.3h2.4l.8-.4v-4.5h-9.3v4h2.9l-1.6 24.3-8.4-28.3c0-.4 0-.8-.8-.8zm57.3 4.9c-3.3-.4-6.7-.6-10-.8v4.4h2.3l-3.2 25.9h-2.8l-.4 4.4 15.3 3.6v2h4V80.5h-3.3l-.4 4c-2.8 0-5.6-.8-8-1.6l3.2-25.9h3.2Zm-181.4 3.2c4-.8 6.5 1.2 7.3 5.3 0 2 0 4-1.2 4.8l-2 1.6-3 .8-3.5.4-2-11.7zm51.3-4.8c2 0 3.3.4 4 1.2 1.3 1.2 1.7 2.4 1.7 4.4 0 2 0 4-1.6 4.9l-1.6.8h-6.1l-1.2-10.5Zm104.3 3.2 2 14.5-7.3-.8c1.6-4.6 3.4-9.2 5.3-13.7zm-56.3-2.4c1.2 0 2 0 2.8.8 1.2 0 1.7.8 2.5 1.6l.8 4 .4 5.7c0 4.4-.8 8-1.6 9.7-1 2-2.5 2.8-5 2.8-2.3 0-4-.8-4.7-2.8-1.3-2-2-5.3-2-9.7 0-4 .7-7.3 1.6-9.3.8-.8 1.2-1.6 2.4-2zm-30.7 42c-4 0-7.3 0-10.5.8l-.4.8 1.2 5.3h1.6c0 9.6 0 21-1.2 33.5h-2.4l-1.2 8.5h10V135h-2.4l.9-15 4 .9c2 7.6 3.7 15.3 5.2 23h5.7v-9.3l-3.2.4-4-14.6a8 8 0 0 0 4.4-4 7.8 7.8 0 0 0 1.2-4 27 27 0 0 0 0-11.3c-1.2-4.9-4-7.3-9-7.3zm-16.2 0c-6 .5-11.8 1.2-17.7 2v5.3l2.4-.4c0 9.2 0 20.2-1.6 31.9l-2-.8v.4c-.5 2.3-1 4.6-1.7 6.8l16.2 1.6v3.3h4c.6-5.3 1-10.5 1.2-15.8h-2.8c-.8 0-.8 0-.8.8l-.4 4.5h-9.7l1.2-15h9v-6l-8.6.4v-13l8-.4v5.3h3.3v-11zm110.7 4c-6.1-.6-12.3-.9-18.5-.8v5.3h2.4c0 9.3 0 19.4 1.6 29.9h-2.3a72 72 0 0 0 1.2 6.4l12-6 1.3 2h3.3c-1-3.9-1.7-7.8-2-11.7h-3c-.3 0-.7 0-.7.8l.4 3.6-6 4.9-1.7-12.6h9c-.3-1.7-.4-3.5-.5-5.2h-9.3v-12.1l8.5.4.4 5.2h3.2l.4-9.7zm-141.4-2.4c-2.4 0-4 1.2-5.6 3.2l-1.6 4v4.1c0 2 .4 3.6 1.2 4.9 0 .8.8 1.2 1.2 2l3.2 2.8c2 1.7 3.9 3.4 5.7 5.3.8.8 1.2 2.4.8 4 0 2-.8 3.6-1.6 4.4-.8.9-2 .4-4 0-1.3 0-2.1-2.8-3.7-3.2v-5.1l-3.6 1.2c0 3.6 0 7.2-1.3 10.9l.4.8h3.3l.4-2.4c2 .8 2.4 4 4 4 1.2.4 2.8 1.2 4 .8 3.3-1.6 5.3-5.6 6-11.7.5-3.2 0-5.7-.7-7.3-.4-1.6-2.4-3.6-4.8-5.2a82.3 82.3 0 0 0-5-3.7l-1.1-1.6-.4-2v-2.4c.8-2 2.4-3.3 4.4-3.3h3.7l.8 6.5 3.2-.4c-.2-3.8-.4-7.5-.8-11.3l-2.8 1.2c-2-.4-4-.8-5.7-.4zm108.7-.4c-3.2 0-5.6 1.2-7.7 4.4-2 3.3-2.8 9-2.8 16.6 0 8 1.6 15 4 19.4a13 13 0 0 0 4 5.3c1.3 1.2 3 1.6 5 1.2 2 0 3.6-1.3 5.2-3.3v1.6c0 .9.8 1.3 1.2 1.3l3.2-1.7c-1.1-4.2-2-8.5-2.8-12.9l-3.2 2 .4 4a8 8 0 0 1-4 1.7c-1.3 0-2.5 0-3.3-.8-3.2-1.6-5.2-8.1-5.2-17.4 0-6 0-10 1.2-12.5l2.4-2.8 3.2-.9 4 1.3.5 7.6 3.6-.8c-.3-4.2-.4-8.3-.4-12.5l-3.2.4c-1.7-.8-3.5-1.2-5.3-1.2zm-34 0-.3.4v5.3h2.4c-1.6 10-3.6 20.6-5.3 33.9l-6-33.5h2.8l.4-.9-.4-5.2h-8.5v6.5h1.2c3.3 13.7 4.9 23.8 8 42l.9.8 4-1.2c2-17 4-30.3 7-42.4l2-.9V95zm11 0h-.4v6.1h2.4c0 9.7 0 21.4.8 33.9h-2.3l-.4.4.8 7.3 9.3-.8-.8-7.3h-2.4c-1-12.1-1-24.3-1-33.5h2l.6-.9v-4.8zm-38.5 4.4c1.6 0 2.8.8 4 2l.9 5.7c0 2.8-.5 4.9-1.7 6l-2 1.3a8 8 0 0 1-2.8 0h-3.2V99.8h5.2z"/>
</svg>