<svg class="usp_cacti" xmlns="http://www.w3.org/2000/svg" viewBox="0 0 250 322.8">
  <path fill="#de7c61" d="M82.05 258.6v4c0 5.3 0 5.3 4 5.3 4.1 0 3.3-2.5 10.6 30.7l7.4 24.2h42.8s4.5-13 8-27.9l5.8-27h3.6c3.6 0 3.6 0 3.6-4.9v-4.4zm24.3 27c2.4 0 6.4 4.9 6.4 8.1 0 1.2-.8 3.7-2 4.9-2.8 2.4-8.5 2.8-10.9 0-1.6-2-2.4-7.3-.8-9.3.8-1.6 5-3.7 7-3.7zm19.4 0 4.4 2.5a7 7 0 0 1 .9 10.5c-4.8 4.8-13 1.2-13-5.7 0-3.2 4-7.3 7.8-7.3zm19.4 0c2.9 0 8 4 8 6.9 0 2-2.3 6-4 7.3-2 1.6-7.2.8-9.2-1.2-4-4.5-.5-13 5.2-13z"/>
  <path fill="#e54242" d="M104.35 2.4c-.8 0-2 .8-4 2.8-3.3 2.9-6.5 3.3-11.8 2.5-6.5-1.7-6.9-1.3-6.9 4 0 4.8-1.2 6-6.4 6.9-6 .4-7.3 3.2-4 10.9 1.1 2.8 2 3.6-1.3 5.2-2.4 1.6-2.4 10.5 0 12.2l5.7 4c8-28.3 31.5-32.7 53.3-28.3 0 0-4-1.2-4-8 0-8.2-.8-8.6-8-5.7-3.8 1.2-5.8.8-8.6-2.9-2-2.4-2.8-3.6-4-4z"/>
  <path fill="#333" d="M124.25 33.5c-3 .5-5.7 1.2-8.5 2l-.4.4.4 4h2.8v11l-9.7.8V41.6l-4 .4v.4l-.4 8.9c-4-.1-8-.8-11.9-2l2.5-8.1c1.3.6 2.6 1 4 1.2l.4-3.2a12 12 0 0 1-6.5-3.3 167 167 0 0 0-8 16.2v1.2c1.8.8 3.7 1.5 5.6 2h.8v-2.8l4 1.2c8.2 2 16.2 1.6 23.1 1.2v2.9h4l.4-.4V38.7l1.7-.7v-4.4zm12 21.4-4.4.4.7 9.3h4v-3.2c6.6 0 16.3.8 25.2-.8-6.4 3.2-24.2 9.3-29 11.3l-1 .4 1.3 8.9h4.4v-3.6c7.3 0 17.8.4 28.3-.4l1.7 3.2 6.4-1.6c-1-3.3-2.2-6.5-3.3-9.7l-6.8 1.6 1.2 2.8c-10 1.2-21 1.2-28.3 1.2 6.4-2.4 23-8 32.3-12.9v-.4l-2-4.9c-11.3 2.9-22.2 1.7-30.3 1.7v-3.3zm-53.3 2-.8 4c-1.6 4.9-3 9.7-4 14.6h-2l-.8 3.7c6 1.4 12 2.4 18.2 3.2l-.5-4-7.2-1.2.4-4v-.9c10.2 2.2 20.6 3.2 31 2.8v1.2l-.3 2.5h5.6v-2.5l-.8-9.2h-4v4a139 139 0 0 1-30.7-3.2l1.2-4.9c2.7.7 5.4 1.2 8 1.6l.9-3.2c-4.6-1-9-2.6-13.3-4.4zm-8.8 28-.4 6.4v14.5l.4.4h1.6l7.2.9-.4-2.5a451 451 0 0 0 34.8 2l-.4 2.5h5.5l-.4-16.6h1.7l.4-.4v-3.6h-11.4v3.2l1 .8h3.5v10.1l-12.5-.4c-.2-3.4-.4-6.7-.4-10.1h-6c0 3.2.1 6.5.3 9.7-5.5-.4-11-1-16.6-1.6v-9.3l7.3.4v-3.6a258 258 0 0 1-15.3-2.9Zm77.5 0c-7.2.3-12 1.1-15 3.2a8 8 0 0 0-3.2 3.2c-1.6 3-1.6 6.7 0 9.7 3.3 4 9 6 20.3 6 6.4.4 12.9-.6 19-2.8 4-2 6.4-4.4 6-8v-1.3c-1.6-7.2-13.7-9.7-27-9.7zm0 4.4a55 55 0 0 1 13 1.2c2.8.8 4.8 2.4 5.2 4.8v1.2c0 2-1.3 3.3-3.3 4a28.6 28.6 0 0 1-13.3 2.1 31 31 0 0 1-11.7-1.2l-2.4-2a5 5 0 0 1-1.2-3.3l.4-2.8 2-2c1.3-.6 2.7-1 4-1.2zm-17.3 21h-.5v9.3h5.2v-2.4c10.5 0 18.2 0 33.5.8l.8 2.8h8.1v-9.4l-1.2-.8h-8v2.8l-33.5-.4-.4-2.8zm-12.3 2.4-11.7.8 1.2 3.7h5l.4 8c-11.7-.2-23.5-.6-35.3-1.2l-.7-3.6h-7.6l-1 .4c.6 3.5 1 7 1.8 10.5h8.4l-.8-3.2h6l29.6 1.6v2.8h5.6l-1.2-16.2h2l-1.2-3.2-.8-.4zm12.2 10.5h-.8l.8 4v14.2h-.8l-.9 3.2.4.4h13l-.8-3.6h-5.7v-5c9 0 19.4 0 33.1 1.3v4h9.3v-12.1h-9.2v3.6l-33.5-1.2v-4.8h7.3l-.4-4-12.1-.5zm-44 11.7h-3a26 26 0 0 0-10.8 2.9h-.8a8 8 0 0 0-2.8 4.8l-.4 3.2a52 52 0 0 0 3.6 12.2c0 .4.4.8 1.2.8h.8l5.7-.8-.9-3.3h34.4v2.9h5.2l-.8-11.8h-4.6v4h-11.7v-4c0-2 0-3.2-.8-4.4a8 8 0 0 0-3.7-4.4c-2-1.7-5.6-2.5-10.5-2.5zm0 4.5c4 0 6.4.8 8 2l1.2 2.4v6.9h-17.7l-.7-5.3c-.4-3.2 2-5.2 6.9-5.6h2.7zm44.4 10.5h-.3l.7 9.3h4.9v-1.6c7.3 0 16.2.4 25.9 1.6l1.6 1.6c2 2.4 2.8 4 2.4 6-.4 3.3-5.2 3.7-13 2.9l-10.4-.8h-3.7l-4-.4v-1.2h-5.7l.9 8.4h4.8v-3.2l7.3.8 12.5 1.2c5.3.4 9.7.4 13 0 2-.4 3.2-1.2 4.4-2 1.2-.8 1.6-1.6 2-3.2 0-1.2 0-2.9-1.2-4.5a23.4 23.4 0 0 0-5.7-4.8c3.4.3 6.8.7 10 1.2v-8l-8-.9v3.6c-13.7-2-24.2-2.4-33.5-2.4v-2.8h-5.2zm-16.1 12.1h-.4v2.8l-26.7 1.2-4.5.4-1.2-2.4-8 1.2c0 2.9.7 5.3 1.1 8.1 13.1 0 26.2 1.8 38.8 5.3l-24.2 4.8c-4 1.2-8 2.6-11.8 4l3 8.5s0 .4.8 0l6-1.2-.9-2.4 4-.4a197 197 0 0 1 24.3 0v2.8h.8l3.6.4h.5l-.5-9.3h-4.4v2.9c-8-.6-16.2-.8-24.2-.4a240 240 0 0 1 25-5.7l4-.8v-5.3a658.6 658.6 0 0 0-31.9-4.8l-6-.4 6-.8 26.7-1.2v1.6h4.8v-8h-.8l-4-.5zm43.2 18.2-.8.4v4l5.6.4-1.2 9c-9-2-18.2-3-27.5-3v-3.1l-4.9.8.5 10 4-.7v-2.6c8 0 17 0 27 2.9l-.3 2.8 5.6 1.6 4-16.6h2.5v-3.2l-1.2-1.2a131 131 0 0 0-13.8-2zm-52.5 19a41 41 0 0 0-13 1.6l-5.2 2.8-2.4 2.8-.8 2v5.3a9 9 0 0 0 3.6 5.3 15 15 0 0 0 8 2.8l8.5.4c5.7 0 9.3-.8 12.1-2.8 2.4-2 4-5.3 4-9 0-2.3-.8-4-2-6l-2-2.4c-3.4-2-7.3-3-11.3-2.8zm36.4 4c-3 0-5.7.4-7.3 1.2l-2.5 1.2-2.9 4a8.6 8.6 0 0 0-1.2 5c0 2 0 3.6.9 5.2 2 4 7 6 14.2 6 4.7 0 8.8 0 12-1.2 3-1.1 5.3-3.7 6-6.8 1.7-4 0-8.1-4-11.4-2.8-2-6.8-3.2-11.7-3.6h-3.1Zm-36.4.4c2 0 4 0 5.3.8.8 0 1.2 0 1.6.8 2 .8 2.8 2.5 2.8 4.9 0 2.8-.5 4.8-2 5.6-2 1.7-5 2-9 2a38 38 0 0 1-9.7-.8c-1.2 0-2.4-.8-2.8-1.6l-1.6-3.2v-3.2c0-.8 1.2-1.6 2-2.5l1.2-.8c1-.5 2-1 3.2-1.2 2.8-.7 5.7-1 8.5-.8zm36.4 4h2.8c4.4 0 8 1.3 9.3 2.5 2 1.2 2.4 3.2 2 5.6-.4 2.5-2 4-3.6 4.9-2 .8-5 .8-9 .8s-6.4-.4-8-1.6c-1.2-.4-1.6-1.2-2-2-.4-.9-.8-2-.4-3.3l.4-3.2 2-2c.8-.8 2-1.2 4-1.6zm-21.8 19.9h-3.8l-4 .4-.4.4.4 3.6.4.4h2.8l.8 4.8-.8 4c-1.2 3.3-4.8 4.1-11 3.7-2.7-.1-5.4-.7-8-1.6l-2-2-.8-3.2v-4.6c1.7-.5 3.5-1 5.2-1.2v-.8l-.8-3.6c-3.1.3-6.2 1-9.3 2l-.8.8 1.2 2.8v.8c0 1.6 0 3.7.9 5.7 0 2.4 1.2 4 2.4 5.6l1.6 1.2 4 1.7 6.5 1.2c4.8.4 8.5 0 11.3-1.6 1.6-1.3 2.8-2.5 3.2-4a9.7 9.7 0 0 0 1.3-5.3c0-2.5 0-4-1.3-6.5h.9v-4.4Zm27.8 2a5 5 0 0 0-4 2l-3.6 5.6c-1.5 2.7-2.8 5.4-4 8.1l-1.7.4h-1.6c-1.2-1.2-2-3.2-2-6 0-.8 0-2.5.8-4l4-.5.4-.4v-3.6l-8-.4-.5.8v.4l.4 2.8c-.5 2.3-.8 4.6-.8 6.9 0 2.8.8 5.2 2 6.9l2.9 2c.8 0 2 .4 3.2 0 1.6 0 2.8-.4 3.6-1.6l1.7-2 1.6-4c1.2-2.6 2.6-5 4-7.4.8-.8 1.6-1.2 2.8-1.2.9 0 1.7.8 2.5 1.6v4l-.8 5.7h-3v4c2 0 4 .5 5.7 1.7l.4-.4.4-4-1.2-.5 1.6-5.6.4-4c0-1.7 0-2.5-.8-3.7-1.2-2-3.1-3.3-5.3-3.6z"/>
</svg>
