<svg class="usp_cacti" xmlns="http://www.w3.org/2000/svg" viewBox="0 0 250 269.4">
  <path fill="#de7c61" style="fill:var(--hb_orange-dark);" d="M87.22 205.2h-1.2c-2.4 0-2.4.4-2.4 5.2v4.9h7.6l1.2 5.6 1.7 7.7c.4 1.6 2.4 1.6 31.5 1.6l31-.4 1.7-7.3c1.6-7.2 1.6-7.2 4.8-7.2 3.3 0 3.3 0 3.3-4.9 0-4.4 0-5.2-2-5.2h-.8zm8 29.9 1 2.8.7 4.4c.8 2 2.4 2.9 2.4 1.2l2-3.2 2-2 3 3.2 3.1 3.3 1.6-2.5 2.4-3.6c.5-.4 2 .4 4 2.4l3 3.7 1.5-2.5 3-3.6c0-.4 1.5 0 3.5 2.4l2.8 3.7 2-2.5 2.5-3.6c.4-.4 2 0 4 2.4l2.4 3.7 3.3-3.3 2.8-3.6 2 3.2c2.8 4 4 3.2 4.5-2l.8-4h-30zm52.6 6.8-2.8 4-2.9 3.3-2.4-3.6-2.8-3.7-2.8 4-2.9 3.3-2.8-3.6-2.8-3.3-2.9 3.3-2.4 4-2.8-4-2.8-3.3-2.9 3.3-2.8 3.6-2.4-3.6-3.3-3.3c-1.2 0-5.2 6.9-4.4 8.1 0 1.6 4 2 27 2h26.3V250c0-1.2-.8-3.6-2-5.2zm-13 14.2h-9.2c-21 0-25 .4-25 1.6l1.1 6.4 2.5 5.3h42.8l2.4-4.4c2-8.1 4-9-14.5-9z"/>
  <path fill="#61af76" style="fill:var(--hb_green-light);" d="m101.72 2.4-.8 3.2c-1.2 4.4-1.6 4.8-4.8 1.6-3.3-3.2-3.7-2.8-2.4 1.6 1.2 3.2-4 3.2-6.5 2.4-1.6-.4.4 5.7 4 8.1 8.5.8 17 2 21.8-5.2 2.5-3.7 1.3-4-2-2.9-2.8 1.2-3.6 1.6-2.4-2.4 1.6-4.8 1.2-4.8-2-1.6-3.7 3.6-4 3.2-4-1.2l-.9-4zm85.7 11.2-2.8 4c-3.7 5.7-3.7 5.7-4 0 0-4.8 0-4.8-1.3 0-.8 4.1-3.6 3-3.6-1.5 0-4-2-4.9-4 0 1.5 4-3.3 6.4-5-4-.3-2.5-4 8.8-3.2 11.2-.4-.4 7.3 16.2 23.5 9.3 14.5-11.3 10.5-12 1.6-9.3-3.6 0-2.8 0-2-4.8.8-2.8 1.2-4.4.8-4.9zM34.72 55.4c-1.7-5.3-2-5.3-3.7 0-1.2 4-2 4-4 1.2-1.2-2.9-1.6-2.9-1.6 1.2 0 2.4-4 2.4-5.7 2.4-1.2 0-2 .8-1.2 2 1.2.8.8 5.3-.8 7.3-1.6 2.8-1.6 4 0 4 2 0 4.8 1.7 4 3.3 12.6 8 21.4-9.3 13-21.4zm196 36.3c-12.2 4.5-7.4 18.2-1.3 28.3 4 2.8 3.2 0 8 .4-.3-1.6-1.5-2.4-4-4.4-4-4-4-4 1.7-2.5 5.6 1.7 5.6 1.7 1.2-2.8-4.5-4-4.5-4 0-4.4 4-.4 4-.4 0-1.6-3.3-1.3-3.7-2-.8-6.1 2.4-4 2.4-4-1.2-2.4-3.3 1.2-4 .8-3.3-2 .4-1.3 0-2.5-.8-4-1.2.7 1.6 1.1.4 1.5zm-214.2 60.6c-1.6 1.2-6 3.3-1.2 2.5 1.2 0-.8 2-2 4-2.5 4-5.3 4.4 1.2 4.4 2.4 0 4.4 1.3 2.8 2-1.6.9-5.7 3.3-5.7 4.5 0 1.6 4.5 1.2 6.5.4 2.4-1.2 3.2 0 2 3.2-1.2 4-.8 4.5 1.2 2.9 1.6-1.2 4-.8 4.5.4 13.7-9.3 0-28-9.3-24.3z"/>
  <path fill="#333" style="fill:var(--hb_grey-darkest);" d="M111.42 25.4a145 145 0 0 0-19.8 4.8l1.6 4v.5h1.3l2.4-.8 5.2 27h-3.1v5.7l.8.8 12.1-2.4c.8 0 .8 0 .8-.8l-1.2-4.5v-.4l-4 .8-1.6-10.9 4.8-.4 11.3 13.7h1.2l7-1.2.7-1.6-.8-4c0-.4-.4-.8-1.2-.4l-4 1.2-8.5-9.3c2.4-.8 4-2.4 5.2-4.5.8-1.2 1.2-2 1.2-3.6v-4.4l-2-4.9c-1.6-2.8-4.8-4.4-9.3-4.4zm34.8 2.4h-.4l-2 4v.8l3.6 1.3-8 26.2-3.7-1.6-.4.4-1.2 4v1.3l11.3 4 .8-.4 1.2-4v-.9l-3.2-1.2 8.4-26.2 3 1.2.7-.4 1.2-4v-.5zm-35.2 2.8c1.2 0 2.5 0 3.3.8a7 7 0 0 1 2.8 4.5c0 2.4 0 4-1.6 5.6-.7.7-1.6 1.3-2.5 1.6l-4 .9-4 .8-2.9-12.2c3-.8 6-1.5 9-2zm67.5 12.1-4 3.3v.8l2.8 2-19.4 19.4-2-2.4h-.4l-3.7 3.2v.8l16.2 15.8-.8.8v1.2l3.2 3.2h.8l7-7.7v-.8l-2.9-2.8h-1.2l-2.5 2.4-10-9.3 8-8 9.3 8.4h.8l2.8-3.2V69l-9.3-8 8.1-8.6 9 8.1-3 2.8-.3.9 3.2 3.2h.4l7-6v-1.3l-18.7-17zm-112.3 1.7h-.4l-17 19v.8l3.2 3.2h.4l2-2.4 20.3 19-2.9 2v.4l3.7 3.6h.8l15-16.6 1.1.9h.8l3.7-3.3v-.8l-8-6.9h-.5l-3.2 2.9v1.6l2.4 2-8.9 10.1-8.5-8 8.5-9c.4 0 0-.4 0-.8l-3.2-2.8h-.8l-8 9.7-8.2-8 7.7-9.4 2.8 3.3h.8l3.2-2.9v-.8l-6.4-6.8Zm-18.2 29.4c-1.6 0-2.8 0-4 .9-1.6.8-3 2-4 3.6l-2.5 4.8c-1.9 4.8-3.5 9.7-4.9 14.6l.4.8 3.3 1.6h.8l1.2-4 26.3 10.5-2 4 4 2h1.2l5.2-13.7v-.8l-4-2h-.4l-2 5.6-10-4c1.5-3.5 3-7.2 4-11 .7-5.6-1.3-9.2-6.9-12zm0 6.1 3.6.4c2 1.2 3.7 2.4 4 4.5v2.8l-1.5 4-2 4-12.2-4.8 2.4-6c1.3-3.3 3.3-4.9 5.7-4.9zm161.6 2.4-4 .8h-.8v.4l1.2 4.5-26.3 6.9-1.2-3.7h-.4l-4 1.2s-.4 0 0 .8l2.8 11.8s0 .4.4 0l4.8-1.3v-.8l-.8-3.6 26.3-7.7-28.3 23v.5l2 6s0 .4.8 0l30.7-8 .8 3.2c0 .4.5.8 1 .4l4-1.2h.3v-.8l-2.8-11h-.4l-4 .9h-.5v.4l.8 4-26.2 7.3 27.4-21.9v-1.3l-2.8-10.5zm-147.4 32.4h-1.2l.4 4-13.7 10.5-13.3-8v-3l-.4-.3h-4.9l-.8.4.8 10.9c0 .4 0 .8.8.8l4-.8h1v-2l9.6 4-9.3 5.7V134h-5.2l-.4.5v.4l1.2 12v.9h5c.3-.4.7-.4.3-.8v-3.3l13-10.5 14.5 9.3v3.3h5.6c.4 0 .8 0 .4-.4l-.8-11.8-.4-.4h-4c-.8 0-.8.4-.8.8v2.5l-11-5.3 10.1-6v2l1 .4 4-.4.7-.8-1.2-11.3zm132.2 9.2c-3.7 0-6.5.9-9 1.7a13 13 0 0 0-4.4 4c-2.6 4-3.2 9.2-1.6 13.7h-1.2c-.8 0-1.2 0-1.2.8v4c-.4.9 0 .9 0 .9l9.7.8.8-.4v-4l-.4-.8-3.2-.9v-5.6c0-1.6.4-3.2 1.2-4 2-4 7.2-4.9 15-3.7 5.2.8 8.4 2 10.4 4 1.2.9 1.6 2 2 3.3v4.4c0 1.6-.8 3.7-1.6 5.7l-6.4-.4h-.9l-.4 4.4.4.8 11 2c.8 0 1.2 0 1.2-.8V149c.8-1.6 1.6-4 2-6.9.8-4.4 0-8-2.4-11.3-4-3.5-9-5.6-14.2-6zm-121.3 22.7h-.4l-8.4 6v.8l2 3.7c.4.4.8.8 1.6 0l2.4-1.6 8.1 11.3-9.7 6.4-7.3-10.5c0-.4 0-.4-.4 0l-3.6 2v1.3l7.3 9.7-9.7 6.8-7.3-9.7 4-2.8v-.8l-2.4-3.6h-.3l-8 4.8s-.5.4 0 .8l14.5 20.6c0 .4 0 .4.4 0l4-2c.4 0 .4 0 0-.4l-1.6-2.8 23-15 1.2 2.9h.8l4-2.5v-.8l-12.8-18.6 1.2-.8c.4 0 .8-.4.4-.8l-2.4-4h-.5zm102 4.8h-.5l-13.4 18.6-1.2-.8h-.8l-2.8 4v.4l8.5 6.1h.8l2.4-3.6v-1.2l-2.8-2 8-11.4 9.3 6.9-7.6 10v.9l4 2.4h.8l6.5-10.5 9.7 6.9-6.9 10-3.2-2.3-.4-.4h-.4l-2.9 3.6v.4l7.3 6h1.2l14.2-21v-.8l-3.7-2.8h-.8l-1.6 2.8-22.2-16.1 2.4-2.4v-.8z"/>
  <path fill="#61af76" style="fill:var(--hb_green);" d="M105.02 83.9c1.2 0 1.6 7.7 3.6 7 2.4 0 12.1-8.2 6.5 1.5-2.9 2.9-.8 3.7 3.2 4 6.5.5 5.3 1.7 1.2 4.1-4 1.6-2.8 2.8 0 4.9 4 2.8 2.8 4.8-4.8 2-4-.4-3.7 5.6-6.5 8-2.8-3.2 0-8.4-2-8.8-1.6 0-6.5 5.6-9 4.4 1-4 1.7-4 3-6.8.7-2-4.5-1.7-8.2-3.7-4.4-2-5.6-3.2 1.2-4 1.7 0 3.3 0 4-.8v-.8c0-.4 0-1.3-1-2-6-5.7 0-4.5 6-1.7 1.1-1.2 1.1-2.8 1.6-4.8zm23 69.5 3.2 3.7c1.2 1.6 2 2.8 3 2.8h.7c.8 0 1.2-.8 1.2-2.4 2-8.1 4-2 4 4.8 2 0 3.7-.4 5.3-1.2 8-2-3.3 4-1.6 6.5 2 1.6 13.3 6.4 2 6.4-4-1.2-3.3.9-1.6 4 2.8 6.6 1.2 6.1-2.9 3.7-3.6-2.4-4-.8-4 2.4-.4 5.3-3.2 4.9-4.5-3.2-1.6-3.2-6.4 0-10-1.6 1.2-4 7.2-4 6.4-6-.8-1.3-8-2.9-8-5.7 4-1.2 4 0 7.2-.8 2 0-.8-4.9-1.2-9 0-2.7 0-4.4.8-4z"/>
</svg>