<svg class="usp_cacti" xmlns="http://www.w3.org/2000/svg" viewBox="0 0 250 320.4">
  <path fill="#de7c61" d="M82.4 256.2v4.4c0 4.9 0 4.9 4 4.9 4.5 0 4.5 0 6.5 11.3.8 4 2.8 9.3 4.4 12l3.3 4.5 3.2-4c2-2.4 4-4 4-2.8l3.3 4 2 2.8 2.8-4 3.3-4 3.2 4 3.2 4 2-2.8 3.3-4c0-.8 2 .4 4 2.8l3.3 4 2.8-4 3.2-4 2.8 4 3.3 4 2.8-3.6c1.2-1.6 3.6-7.7 4.9-13.3 2.4-10.1 2.4-10.5 6.4-11 3.7 0 3.7-.4 3.2-4.4v-4.4l-13-.4h-1.1zm24.6 33.5-3.2 4-3.2 4-1.6-2.4c-3.3-6 4.4 25.1 4.4 25.1h42.8l3.2-11c4-14.9 5.3-16 2.5-13.6-2 1.6-2.4 1.6-4.5-1.7l-3.2-4-3.2 4-2.8 3.7-3.3-4-3.2-4.1-3.2 4-3.3 4-2.4-4-2.8-3.2c-.8 0-2.4 1.6-4 3.6l-3 3.7-2.7-4z"/>
  <path fill="#61af76" d="M127.7 2c-5.3 0-9.7 1.6-14.6 4.9l-7 4.8-4.8-4c-6-4.5-6.5-3.7-1.2 4 3.2 4.9 3.6 6.5 2 9.7-1.1 6-1.7 12-1.6 18.2 0 13-1.1 16.2-3.6 12.1-.4-.8-1.6-1.2-2.4-1.2-.8 0 0 2.4 2.4 5.7 3.3 5.2 4 9.3 5.7 27.4 2 26.7 2 24.3-.8 23.5-2.8-1.2-2.8-.8.8 5.6 2 4 3.2 9.7 4 20.2.4 13.4.4 13-2.4 15.8-3.6 3.6-4.4 3.6-10 1.2l-1-.4c2.4 1.6 6 3.6 9.7 4.8 1.6.9.8 4.5.4 7.3 8 4.9 33.1.8 46-3.2v-10.1c0-5.7 1.3-5.7 3-7.3a14 14 0 0 0 4-5.2c2-3.3 2-3.3-2.5 0l-4 2.4v-5.3c0-2.8 1.6-6 2.8-16.1 2-15 3.3-20.2 5.8-22.7 4-4 4-5.6.7-4.4-2.4.8-2.4-.8-1.6-16.2.9-12.9 2-19 4-22.6 4-6 4-8 0-4.8-2.7 2.8-2.7 2.4-3.5-9a72.7 72.7 0 0 0-3.3-17.3c-2-4.8-2-5.7.7-9.3 4-4.4 2.6-6-2-2-2.7 2-4 2.4-6 .8A34 34 0 0 0 127.2 2zM27.9 77.6l-2 5.6-5.3 6.9c2.8-1.2 6-2 9.7-2 2.8 0 5.2 0 8 .8l-5.2-.8c-4 0-4.9-.8-4.9-5.3zm166.8-10.2c.7 0-.9 2 0 5.2 0 4 0 5.3-2 8.1 3.1-1.6 6.4-2.4 10.4-2.4-3.5-.8-4.3-2-5.6-6-1.2-3.3-3.6-5-2.8-5zM70.9 99.7l-4 2.8c-1.6 1.6-2.4 2-3.6 0 1.6 3.3 2 6.9 2 10.5a39 39 0 0 1 3.7-8c2.4-3.3 2-4 2-4.9zm173.7-24.1s-1.3.4-2.5 2l-2.2 2.8 2.8 4 .9-2.8c1.6-4 2-6 1.2-6zM5.1 99.4c-.8 0 0 1.6 3.8 5.7 2 2.8 3.1 4.4 4 6.8v-8l-3.3-2-4-2.5zm166.6 12.1c.3 1.2.7 1.6 5.1 6.9 2 2.4 4 2.8 5.7 4 1.2-2.8.8-6 1.6-8.9l-3.2 1.7-5.7-2.5c-1.6-.8-2.8-2.4-3.6-1.2zm-91 16.2c-.7 0-2.3.8-4.4 2.8-2.5 1.6-4 2.8-5.3 2.4a14 14 0 0 0 2.8 4.9l.4.8 4-4.9c3-4 3.7-6 2.5-6zm86.5 9.7c-1.7 0 0 2 4.4 5.6 2.5 2 1.7 3.3 2 4 1.3-1.1 4-2.8 4-4.8l-6.3-3.2c-1.4-.8-2.7-1.3-4-1.6zm-152.8 1.2-3.1 1.2s-6 0-6.5 1.6c0 1.2 6.9 2 6.9 2 1.2 0 2.4 2.5 3.6 4.9zm215.9 16.1c0 2.9-3 5.3-3.3 8.1.8-.8 4-1.2 6.5-2 6.5-2 7.3-4.4 1.2-3.6l-4.5.8zm-202 17.8-1.4 2.9c-3.2 6.8-2.8 7.6 2 2.8l2.9-2.4c-1.4-1-2.8-2.1-4-3.3zM199.9 196c-13.4 7.6-4.5 4-5 4 0 0 10.2 7.3 13 5.7 2.5-1.3-4.4-7-4.4-7zm-135.8 6c2 1.6 1.6 4-.8 8.5-2.8 6-.4 6 4 .4l5.3-7.3zm36.4 17 .8 13.7-6 2.4-6.1 2.9h13.3v9.3l-.4 8.9h49.8v-7.8c0-8.1 0-9 5.5-11 7.3-3.2 7-4.8 0-3.2l-6 .8.8-5.6c.8-6 0-12.1.4-16.6-15.3 4.5-42 5.7-52.4 6z"/>
  <path fill="#333" d="m225.3 85.7-.4.4-.4 4c0 .8 0 1.2.8 1.2h3.3v13.8l-12.1-.9.8-12v-.9h-4.8l-.8.4v12.1h-11.4v-12h5.2l.4-.5.4-4-.4-.8-9.3-.8-.8.8-.4 25 .4.4 4.5.8c.4 0 .8 0 .8-.8v-2.8l27 1.2-.8 3.2.4.4 5 .4.3-.4.8-22.6h2v-5.6zm-204 10.5h-.8l.4 11.3v.4h4.8v-3.7l7.3 2v12.2l-6.9 2.4v-3.2h-.8l-4-.8-.4.4v12.5h4.4c.4 0 .8 0 .8-.8v-2l32.4-11 .4-.3v-5.7c0-.4 0-.8-.8-.8l-31.6-9.7v-2.8h-.8zm16.2 11.3 16.1 4.4-16 5.3zm164 9.3h-1.2c-4.9.8-8 4.4-9.7 11.3-1 5-1.5 10.2-2 15.3h4.9v-.8l.8-2.4 26.3 6.5-.8 2.8v.8l4.8 1.6h.8l2.9-12.5v-.8l-5-.8h-.3l-.8 3.6-10.5-2.8 1.2-4.9 17.4-4.4.4-.8 1.6-6.9c0-.4 0-.8-1.2-1.2l-4-.8-1 .4-.3 4.4-12 4c.3-2.7 0-4.8-1.7-6.8l-2.4-2.4-4-1.6zm0 6h2.8c2 .8 3.7 2 4 4l.5 2.9-.4 4-1.3 4-12-2.7 1.1-7c.4-2 1.2-3.6 3-4.4l2.7-.8zm-145.9.8-4.8 1.2v.9l1.2 2.8-26.3 9.3-.8-3.3h-.8l-4 1.7h-.4v.8l5.2 14.1h.8l4-1.6v-.8l-2.3-6 11-3.3 4 12.1h.3l4-1.2v-.4l-4-12.1 11.3-4 2.9 9.6-3.2 1.2c-.4 0-.8.5-.4 1.3l1.6 4 .8.4 9.3-4.8c.4 0 .8 0 .4-.4l-1.6-4h-.9l-1.2.3L56 124h-.4zm129.3 23-4 4.1v1.2l14.5 30-1.6 1.5-.4.8 3.2 3.3c0 .4.4.4.8 0l7.7-7.7v-.8l-2.8-2.4h-.8l-2 2-3.7-6.5 9.3-8 6 2.8-2 2v1.2l2 2.8.5.4h.8l8-8 .5-.5v-.8l-2.8-2.8h-1.2l-1.6 1.6-29.9-16.1zm-119.6 1.3-8 9.3v.8l4 2.4h.8l3.2-4 5.3 3.6-16.2 21.4-4-3.2-3.7 4v.8l12.2 9h.8l2.8-4.1-4-2.9 16.1-21.8 5.7 4-4 5v.3l3.2 2.9h.4l7.7-8.1v-.8l-4-2.5-15.4-12h.4c.4-.5 0-.9 0-.9l-2.9-3.2zm120.8 5.2 15 8.1-7.2 6.9zm-12 1.6h-.4l-4 2.9c-2 0-4 .8-7 2-4 1.6-6.5 4.4-7.7 8-1.1 4.1 0 9.4 2.5 15.4a27 27 0 0 0 9.3 12.1c2 1.3 4 2 5.7 2 2 0 4-.3 6.5-1.5a14 14 0 0 0 6-4.5l.4.8c.4.4.8.8 1.6.4l3.7-2s.3-.4 0-.8l-4.6-8c0-.9-.3-.9-.7-.9l-3.7 2.4v.8l1.2 3.3c-1.4 1.2-3 2.2-4.8 2.8-1.3.6-2.7 1-4 1.2-4 0-8.2-3.2-11.4-10.5-2-4.4-2.8-8-2.4-10.9.4-1.2.8-2.4 2-3.2.8-1.2 2-2 3.6-2.9l5.3-1.6 3.2 5.7.8.4 3.7-1.6s.4-.4 0-.8l-4-10.1zm-84 13v.4l-1.6 4.4.4.8h3.2l-5 27.1-2.7-1.2-.4.4-1.2 4.8.4.4 22.2 3.7v2l4.9 1.2.8-.4 1.2-10.5h-.4l-4-1.2c-.5 0-1 0-1.3.8l-.4 3.2-13.3-2 2-11.3 12 2 1-.4.4-4-.4-.8-12.2-1.7 1.6-11.4 12.2 1.7-.8 4v.8l4.4.8h.4l2.4-9.3c0-.4 0-.8-.8-.8l-24.6-3.6zm48.5.4c-6.6 1.1-13 2.8-19.4 4.8l1.2 4v.5h1.2c.8 0 1.6 0 2.8-.8l4.9 26.6-3.4.4v5.7l.8.4 12.2-2.4.8-.4-1.2-4.9h-.3l-3.4.4-2-10.5c1.2 0 3.2 0 5-.8l11.2 13.7.9.5 6.8-1.7c.8 0 .8-.4.8-1.2l-.8-4-.8-.8-4.4 1.2-8-8.9c2-.8 4-2.4 5.2-4.4l1.1-3.7v-4.4l-2-4.9c-2-2.8-4.9-4-9.3-4.4zm-.4 5.2c1.1 0 2.3 0 3.1.8 1.2.8 2 2.5 2.4 4.5.4 2.4 0 4-1.2 5.6a8 8 0 0 1-2.3 1.7l-4 .8-4.2.8-2.7-12.1c2.8-.9 5.8-1.6 8.8-2z"/>
  <path fill="#e2e542" d="M149.5 12.5c-1.2 0-1.6 6.9-3.7 6.5-2-.4-11.3-7.3-6 1.2 2.8 2.8.8 3.6-3 4-6.3.4-5.1 1.7-1.1 3.3 3.7 2 2.5 3.2 0 4.8-4 2.9-2.8 4.9 4.5 2 3.6-.4 3.6 5.3 6 7.3 2.9-2.8 0-7.7 2-8 1.3 0 6 5.2 8 4-.7-3.7-1.5-3.3-2.7-6-.4-2.1 4.5-1.7 8-3.7 4-2 5.3-2.8-1.1-3.7-2 0-3.3 0-4-.8v-.8c0-.4 0-1.2 1-2 5.8-4.8 0-4-5.5-1.2-1.2-1.2-1.2-2.8-1.2-4.4zm-31.1 65.9-3 3.2-2.7 2.8h-.8l-1.2-2c-1.6-7.7-3.3-2-4 4-1.7 0-3 0-4.1-1.1-8-1.7 2.8 4 1.2 6-1.6 1.6-12.1 6-2 6 3.6-1.1 3.2.9 1.6 4.1-2.4 6-1.2 5.7 2.4 3.2 3.7-2.4 4-.8 4 2.5.5 4.8 2.9 4.4 4-3.3 1.3-3.2 6 0 9.4-1.6-.8-3.6-6.5-3.6-5.6-5.2 0-1.2 7.2-2.9 7.6-5.3-4-1.2-4-.4-6.8-.8-2.5-.4.4-4.4.8-8.5 0-2.4 0-4-.8-4z"/>
</svg>
