<svg xmlns="http://www.w3.org/2000/svg" width="1920" height="1080" viewBox="0 0 508 286"><g fill="#f2e5c3"><path d="M62 33l21-1c3 0 5 1 4 4l-1 10c0 2-1 3-3 3l-21 1c-2 0-2-2-2-4V36c0-2 1-3 2-3zM74 53h20c3 0 4 1 4 4v9c0 2-1 3-3 3l-21-2c-3 0-3-2-3-3v-8c0-2 1-3 3-3zM74 180h20c3 0 4 1 4 4v9c0 2-1 3-3 3l-21-2c-3 0-3-2-3-3v-8c0-2 1-3 3-3zM180 238h20c2 0 4 1 4 4v9c0 2-1 3-3 3l-21-1c-3 0-3-3-3-4v-8c0-2 1-3 3-3zM26 218h20c3 0 4 2 4 4v10l-2 2-22-1c-2 0-2-3-2-4v-8l2-3zM192 101h20c2 0 4 1 4 4v9c0 1-1 3-3 2l-21-1c-3 0-3-2-3-4v-8c0-1 1-2 3-2zM344 148h20c2 0 4 1 4 4v9c0 2-1 3-3 3l-21-1c-3 0-3-3-3-4v-8c0-2 1-3 3-3zM455 249h20c3 0 4 1 4 4v9c0 2-1 3-3 3l-21-2c-3 0-3-2-3-4v-8c0-1 1-2 3-2zM460 33h20c3 0 4 1 4 4v9c0 2-1 3-2 3l-22-1c-2-1-2-3-2-4v-8c0-2 1-3 2-3zM394 228h20c3 0 4 1 4 4v9c0 1-1 3-3 2l-21-1c-2 0-2-2-2-4v-8l2-2zM198 217h20c3 0 4 1 4 4v9c0 2-1 3-2 3l-22-1c-2-1-2-3-2-4v-8c0-2 1-3 2-3zM44 54h20c2 0 4 2 3 4l-1 9c0 2-1 3-2 3l-20 1c-3 1-3-2-3-4V57c0-1 1-3 3-3zM410 206l21-1c3 0 5 1 4 4l-1 11c0 1-1 2-3 2l-21 2c-3 0-3-3-3-4v-11l3-3zM214 241l21-2c3 0 5 2 4 4l-1 11c0 2-1 3-3 3l-21 1c-2 0-2-3-2-4v-11l2-2zM61 198l21-1c3 0 4 1 4 4l-1 11c-1 1-1 2-3 2l-21 2c-3 0-3-3-3-4v-11l3-3zM439 9l21-1c3 0 5 1 4 4l-1 10c0 2-1 3-3 3l-21 1c-2 1-2-2-2-4V12l2-3zM212 79l21-1c2 0 4 1 4 4l-2 11-2 2-21 2c-3 0-3-3-3-4V82c0-1 1-3 3-3zM321 127l22-1c2 0 4 1 4 4l-2 10c0 2-1 3-2 3l-22 1c-2 0-2-2-2-4v-10c0-2 1-3 2-3z"/></g></svg>