<?xml version="1.0" encoding="UTF-8" standalone="no"?>
<svg
   xmlns:dc="http://purl.org/dc/elements/1.1/"
   xmlns:cc="http://creativecommons.org/ns#"
   xmlns:rdf="http://www.w3.org/1999/02/22-rdf-syntax-ns#"
   xmlns:svg="http://www.w3.org/2000/svg"
   xmlns="http://www.w3.org/2000/svg"
   class="header_logo"
   viewBox="0 0 200 200"
   preserveAspectRatio="xMidYMid meet"
   visibility="visible"
   version="1.1"
   id="svg36"
   width="200"
   height="200">
  <metadata
	 id="metadata40">
	<rdf:RDF>
	  <cc:Work
		 rdf:about="">
		<dc:format>image/svg+xml</dc:format>
		<dc:type
		   rdf:resource="http://purl.org/dc/dcmitype/StillImage" />
		<dc:title></dc:title>
	  </cc:Work>
	</rdf:RDF>
  </metadata>
  <defs
	 id="defs">
	<linearGradient
	   gradientTransform="matrix(1.7313384,0,0,1.7313384,-33.193017,-54.437514)"
	   gradientUnits="userSpaceOnUse"
	   y2="66.5"
	   x2="45.799999"
	   y1="78"
	   x1="46.400002"
	   id="linearGradient921">
	  <stop
		 id="stop915"
		 offset="0"
		 style="stop-color:#a0892c;stop-opacity:1" />
	  <stop
		 id="stop917"
		 offset="1"
		 style="stop-color:#28220b;stop-opacity:1" />
	</linearGradient>
	<linearGradient
	   gradientTransform="matrix(1.9068392,0,0,1.9068392,-36.483893,-74.85997)"
	   gradientUnits="userSpaceOnUse"
	   y2="79.400002"
	   x2="93.400002"
	   y1="60.700001"
	   x1="43.299999"
	   id="linearGradient896">
	  <stop
		 id="stop890"
		 offset="0"
		 style="stop-color:#ffccaa;stop-opacity:1" />
	  <stop
		 id="stop892"
		 offset="1"
		 style="stop-color:#925f46;stop-opacity:1" />
	</linearGradient>
  </defs>
  <rect
	 style="fill:none;stroke-width:0.1;stroke-linecap:square;paint-order:markers stroke fill"
	 id="rect899"
	 width="200"
	 height="200"
	 x="0"
	 y="0" />
  <g
	 id="avatar"
	 style="display:inline"
	 transform="scale(1.6666667)">
	<g
	   id="g75"
	   transform="matrix(-1,0,0,1,162.12109,-12.620809)">
	  <path
		 id="head"
		 d="M 141.61489,90.844353 C 131.12727,80.35675 126.74154,66.436824 125.21606,62.241783 142.18693,34.97397 106.91041,42.982694 100.42716,52.516899 L 88.986127,17.049683 c 0,0 -27.458479,-0.190683 -34.513787,16.970868 -7.627366,18.496348 -3.050954,31.462853 -3.050954,31.462853 -1.334787,6.292562 -6.864619,14.491976 -4.576412,17.924287 2.860257,3.432301 7.055313,2.669571 7.055313,2.669571 l 0.572053,1.334791 1.525472,8.580785 c 0,0 0.190682,1.33478 1.906841,1.144085 0,0 -0.381368,2.478892 0.190686,3.241647 l 1.334781,2.09751 8.199408,17.16156 h 28.983963 c 5.529819,3.81368 13.057399,12.98317 13.057399,12.98317 20.21249,-15.25471 30.22784,-30.5261 31.944,-41.776457 z"
		 style="display:inline;fill:url(#linearGradient896);fill-opacity:1;stroke:none;stroke-width:0.190685px;stroke-linecap:butt;stroke-linejoin:miter;stroke-opacity:1" />
	  <path
		 id="hair"
		 d="m 114.34709,99.615815 c 0,0 -16.78019,31.462845 -47.098933,31.462845 -3.81367,0 -12.966502,-24.40753 -8.390092,-28.79327 4.00436,-4.195049 5.911213,3.43231 5.911213,3.43231 2.669559,0.57206 4.957781,-3.24162 4.957781,-3.24162 -1.33479,-5.148462 -2.669592,-6.864624 -2.669592,-6.864624 -11.25034,-1.906842 -12.013076,0.953428 -10.868973,1.144107 -6.673946,1.525463 -5.339158,-9.152819 0.572054,-11.059672 11.822412,3.432323 16.017453,13.538553 16.017453,13.538553 44.047979,14.873366 22.500699,-62.353635 9.152823,-68.264836 -1.144111,-4.95778 4.385732,-7.81804 3.050941,-9.534195 C 71.443199,16.859 56.379179,28.681402 54.090973,34.97397 53.709605,11.329166 111.48683,2.1763291 127.31359,28.872086 c 1.52775,-11.090409 -5.98103,-5.410324 -8.23572,-11.441927 13.15719,-12.0130868 8.04069,3.85676 26.53704,-4.724021 -5.11728,5.253002 -3.42798,7.775855 -9.91122,11.208166 4.81359,3.859382 14.90293,-8.368334 14.90293,-8.368334 -3.46135,12.508414 -8.69225,15.005028 -8.69225,15.005028 7.98481,-3.360957 15.24909,-10.018912 20.20672,7.773774 0,0 -9.91021,-10.150697 -17.17426,-1.401615 0,0 -11.04953,8.770004 1.7263,2.096066 20.4347,-3.557901 12.33905,16.380411 12.33905,16.380411 -3.81368,-19.068394 -22.92713,-7.26847 -22.92713,-7.26847 29.55602,-9.724882 18.11498,39.662259 -1.52547,22.882072 -2.2882,-1.906841 2.28821,4.385732 1.14411,13.729246 -4.38572,-0.762741 -9.34352,-11.250355 -10.29693,-22.500699 0.95341,-7.436684 0.76274,-26.505076 -24.59824,-8.962155 z"
		 style="fill:#2b0000;stroke:none;stroke-width:0.190685px;stroke-linecap:butt;stroke-linejoin:miter;stroke-opacity:1" />
	  <g
		 transform="matrix(1.1013671,0,0,1.1013671,-47.738746,-58.09109)"
		 style="display:inline"
		 id="shades">
		<path
		   id="frame"
		   d="m 88.129205,117.74128 c -2.25074,-2.42387 -2.943276,-9.34922 -2.597008,-10.56117 1.558204,-3.28953 7.444763,-8.137287 8.483567,-8.310421 5.020883,-1.558199 6.925356,2.250741 8.137296,3.116421 16.96711,-3.635814 46.39986,-7.617894 47.43866,-7.617894 -2.42387,0.346269 -4.32833,1.385065 -6.92535,3.116407 0,0 -21.29546,3.116407 -37.74318,6.752227 0,0 -1.90446,0.17313 -0.86567,4.15521 0,0 2.94328,7.79102 -2.597,11.08056 0,0 -6.579086,3.98207 -11.426844,-7.44475 0,0.69254 -1.904471,5.71341 -1.904471,5.71341 z"
		   style="fill:#000000;stroke:none;stroke-width:0.173134px;stroke-linecap:butt;stroke-linejoin:miter;stroke-opacity:1" />
		<path
		   id="lens"
		   style="display:inline;fill:url(#linearGradient921);fill-opacity:1;stroke:none;stroke-width:0.173134px;stroke-linecap:butt;stroke-linejoin:miter;stroke-opacity:1"
		   d="m 51.923828,60.759766 c -0.435159,0.01822 -0.876657,0.110069 -1.320312,0.283203 -5.540293,2.77014 -5.539119,6.406408 -3.115235,12.292969 1.731338,3.28955 6.059499,8.48385 9.695313,6.40625 6.492515,-3.083954 1.267624,-19.255688 -5.259766,-18.982422 z m -8.417969,7.208984 c -0.86567,-0.17313 -1.384765,1.556641 -1.384765,1.556641 -0.346268,0.86566 0.518096,6.926296 2.595703,9.003906 2.250749,-4.50148 0.174133,-9.002327 -1.210938,-10.560547 z"
		   transform="translate(43.412,39.212)" />
	  </g>
	  <path
		 id="skindeets"
		 style="display:inline;fill:#782121;stroke:none;stroke-width:0.190685px;stroke-linecap:butt;stroke-linejoin:miter;stroke-opacity:1"
		 d="m 117.72218,45.22348 c -4.28144,0.14301 -8.85758,3.718656 -10.43071,5.577822 14.30129,-10.106248 16.58886,-0.954372 17.54227,1.905882 3.05096,14.301296 -6.48222,18.687875 -13.15617,20.594705 9.53421,-1.71615 12.39511,-6.102445 14.11127,-10.869547 1.52546,-12.203758 -2.4799,-14.491683 -4.00536,-16.017149 -1.23945,-0.905749 -2.63415,-1.239383 -4.0613,-1.191713 z m 0.28395,3.714963 c -1.88077,0.04841 -3.44389,1.1947 -4.03977,1.67141 -5.72052,6.864619 -0.76365,8.580769 -0.76365,8.580769 3.43232,0 3.43193,1.145049 4.19465,-1.905881 0,-1.144123 -3.81283,-0.191872 -5.1476,-1.908033 -0.38138,-1.71615 1.14435,-0.762116 3.81392,-0.380746 6.10189,-0.19068 7.24541,1.143361 6.29199,5.719795 -1.90685,4.957782 -5.33905,3.052423 -5.33905,3.052423 -1.71615,-0.953421 -2.66889,-0.57282 -3.05026,-0.19145 -0.57205,0.38136 -2.66953,-3.05027 -2.66953,-3.05027 2.2882,5.720522 -1.90712,4.003021 -1.14439,6.100541 2.09754,2.669571 3.24024,-4.195342 8.77007,-1.144389 4.00436,0.95342 6.48319,-12.203956 2.66951,-15.064207 -1.2156,-1.144107 -2.45743,-1.509012 -3.58589,-1.479962 z M 56.475849,75.822987 c -1.259046,-0.03887 -2.669882,0.326713 -4.100012,1.101367 4.004361,-0.762741 7.816645,-0.380838 8.770066,4.958303 0.131096,-3.932852 -1.900156,-5.974152 -4.670054,-6.05967 z m -1.813384,5.296027 C 51.992891,81.309705 51.04,83.40855 51.04,83.599241 c 0.953427,2.288189 5.721465,-0.191593 6.674887,-0.763643 0,-0.953431 -1.908318,-1.716584 -3.052422,-1.716584 z" />
	</g>
  </g>
</svg>
