<svg xmlns="http://www.w3.org/2000/svg" height="4.6em" class="siteTitle_logo" viewBox="0 0 200 200">
  <defs>
    <linearGradient id="a" x1="2050" x2="894" y1="2030" y2="1750" gradientTransform="matrix(.17313 0 0 .17313 -33.193 -54.438)" gradientUnits="userSpaceOnUse">
      <stop offset="0" stop-color="#1a1a1a"/>
      <stop offset="1" stop-color="#4d4d4d"/>
    </linearGradient>
    <linearGradient id="c" x1="96.6" x2="168" y1="179" y2="146" gradientTransform="matrix(1.73134 0 0 1.73134 -33.193 -54.438)" gradientUnits="userSpaceOnUse">
      <stop offset="0" stop-color="#4d4d4d"/>
      <stop offset=".656" stop-color="#1a1a1a"/>
      <stop offset=".821" stop-color="#333333"/>
      <stop offset="1" stop-color="#000000"/>
    </linearGradient>
    <linearGradient id="d" x1="46.4" x2="45.8" y1="78" y2="66.5" gradientTransform="matrix(1.73134 0 0 1.73134 -33.193 -54.438)" gradientUnits="userSpaceOnUse">
      <stop offset="0" stop-color="#a0892c"/>
      <stop offset="1" stop-color="#28220b"/>
    </linearGradient>
    <linearGradient id="b" x1="43.3" x2="93.4" y1="60.7" y2="79.4" gradientTransform="matrix(-1.73134 0 0 1.73134 233.193 -54.438)" gradientUnits="userSpaceOnUse">
      <stop offset="0" stop-color="#ffccaa"/>
      <stop offset="1" stop-color="#925f46"/>
    </linearGradient>
  </defs>
  <circle cx="-100" cy="100" r="100" fill="none" transform="scale(-1 1)"/>
  <path fill="url(#a)" d="M102.543 109l-29.258 28.74s14.023 27.703-.693 43.285c5.713-3.462 21.468-10.39 22.334-12.12.205 9.942.894 20.342 1.922 31.095h42.511c-4.436-15.067-9.544-30.061-15.52-44.945l2.77-1.733c1.385 0 9.523.001 18.526 1.733 6.925 0 15.582 1.73 19.045 1.73L185.297 200H200v-28.318l-13.313-20.09-41.552-20.776c-22.334-12.119-41.899-21.469-42.418-21.642-.173 0-.174-.174-.174-.174z" transform="matrix(-1 0 0 1 200 0)"/>
  <path fill="#000000" d="M97.283 109.174l29.432 28.566c0 3.463-13.677 24.24.693 43.285l-19.564-8.658L91.977 200H80.193c4.177-32.567 11.401-82.609 17.09-90.826z"/>
  <path fill="url(#b)" d="M71.486 96.016c9.522-9.523 13.504-22.161 14.89-25.97-15.41-24.758 16.62-17.487 22.507-8.83l10.388-32.203s24.931-.173 31.337 15.409c6.926 16.794 2.77 28.567 2.77 28.567 1.212 5.713 6.233 13.158 4.156 16.275-2.597 3.116-6.406 2.423-6.406 2.423l-.52 1.212-1.385 7.791s-.173 1.212-1.731 1.04c0 0 .346 2.25-.173 2.942l-1.212 1.905-7.445 15.582h-26.316c-5.021 3.463-10.042 15.582-10.042 15.582-18.352-13.85-29.26-31.51-30.818-41.725z"/>
  <path fill="#2b0000" d="M96.244 103.98s15.236 28.567 42.764 28.567c3.463 0 11.773-22.161 7.618-26.143-3.636-3.81-5.367 3.116-5.367 3.116-2.424.52-4.502-2.943-4.502-2.943 1.212-4.675 2.424-6.233 2.424-6.233 10.215-1.731 10.908.866 9.869 1.039 6.06 1.385 4.848-8.31-.52-10.042-10.734 3.117-14.543 12.293-14.543 12.293-39.994 13.504-20.43-56.615-8.31-61.982 1.039-4.502-3.982-7.099-2.77-8.657 12.292-4.155 25.97 6.58 28.047 12.293.347-21.469-52.113-29.78-66.483-5.54-10.561-17.141-8.657-22.162-2.424-22.681-11.946-10.908-3.636 7.098-20.43-.693 10.388 7.272 9.35 15.755 15.236 18.872-6.233 2.77-15.236-16.275-15.236-16.275-.346 11.946 6.753 18.872 6.753 18.872-8.31-3.29-10.042-18.699-23.893 1.039 0 0 16.794-6.753 23.2 5.886 0 0 9.003 6.58-2.597.52-20.603-19.91-8.483 15.408-8.483 15.408 3.462-17.313 19.91-3.462 19.91-3.462-26.836-8.83-16.448 36.012 1.385 20.776 2.078-1.731-2.078 3.982-1.039 12.466 3.982-.693 8.484-10.215 9.35-20.43-.866-6.753-.693-24.066 22.334-8.138z"/>
  <path fill="url(#c)" d="M139.941 80.088c-1.558.866-20.43 25.623-46.92 52.459.866 24.239 8.138 46.746 18.006 65.79.053.555.113 1.109.166 1.663H200v-6.096a435.233 435.233 0 01-1.193-5.955c.425.7.776 1.268 1.193 1.951v-68.757c-11.797-13.934-22.743-21.836-32.357-20.28 0 0-17.315 4.502-20.778 3.463-1.731-1.039-5.192-14.889-6.924-24.238z" transform="matrix(-1 0 0 1 200 0)"/>
  <path fill="#000000" d="M106.978 132.547s-21.295 32.895-39.474 36.358c-2.597-56.268-14.37-64.579-14.37-64.579 3.463 6.06 11.08 29.952 8.657 78.43 23.026-12.12 45.187-50.209 45.187-50.209zM15.045 108.309c12.603 7.755 8.913 47.54-5.28 91.691H0v-6.076a245.27 245.27 0 001.193-5.975c-.406.646-.79 1.288-1.193 1.934V179.37a546.363 546.363 0 014.656-7.004s22.508-43.282 10.389-64.058z"/>
  <g>
    <path fill="#000000" d="M155.283 78.53c2.25-2.425 2.943-9.35 2.597-10.562-1.558-3.29-7.445-8.137-8.484-8.31-5.02-1.559-6.925 2.25-8.137 3.116-16.967-3.636-46.4-7.618-47.439-7.618 2.424.346 4.329 1.385 6.926 3.117 0 0 21.295 3.116 37.743 6.752 0 0 1.904.173.865 4.155 0 0-2.943 7.791 2.597 11.08 0 0 6.58 3.983 11.427-7.444.247 2.57 1.905 5.713 1.905 5.713z"/>
    <path fill="url(#d)" d="M51.924 60.76c-.435.018-.877.11-1.32.283-5.54 2.77-5.54 6.406-3.116 12.293 1.732 3.29 6.06 8.484 9.696 6.406 6.492-3.084 1.267-19.256-5.26-18.982zm-8.418 7.209c-.866-.173-1.385 1.556-1.385 1.556-.346.866.518 6.927 2.596 9.004 2.25-4.501.174-9.002-1.211-10.56z" transform="matrix(-1 0 0 1 200 0)"/>
  </g>
  <path fill="#782121" d="M93.18 54.594c3.887.13 8.042 3.376 9.47 5.064-12.985-9.176-15.062-.866-15.927 1.73-2.77 12.986 5.885 16.969 11.945 18.7-8.657-1.558-11.254-5.54-12.813-9.87-1.385-11.08 2.252-13.157 3.637-14.542 1.126-.823 2.392-1.126 3.688-1.082zm-.258 3.373c1.708.044 3.127 1.085 3.668 1.517 5.194 6.233.693 7.791.693 7.791-3.116 0-3.116 1.04-3.808-1.73 0-1.039 3.462-.174 4.673-1.733.347-1.558-1.039-.691-3.462-.345-5.54-.173-6.579 1.038-5.713 5.193 1.731 4.502 4.847 2.772 4.847 2.772 1.559-.866 2.424-.52 2.77-.174.52.346 2.424-2.77 2.424-2.77-2.078 5.194 1.731 3.635 1.039 5.54-1.905 2.423-2.942-3.81-7.963-1.04-3.636.866-5.887-11.08-2.424-13.677 1.104-1.04 2.231-1.37 3.256-1.344zm55.867 24.41c1.143-.035 2.424.297 3.723 1-3.636-.693-7.098-.346-7.963 4.502-.12-3.571 1.725-5.424 4.24-5.502zm1.647 4.809c2.423.173 3.289 2.078 3.289 2.251-.866 2.078-5.195-.173-6.06-.693 0-.866 1.732-1.558 2.77-1.558z"/>
</svg>
