<?xml version="1.0" encoding="UTF-8" standalone="no"?>
<svg
   xmlns:dc="http://purl.org/dc/elements/1.1/"
   xmlns:cc="http://creativecommons.org/ns#"
   xmlns:rdf="http://www.w3.org/1999/02/22-rdf-syntax-ns#"
   xmlns:svg="http://www.w3.org/2000/svg"
   xmlns="http://www.w3.org/2000/svg"
   class="header_logo"
   viewBox=" 0 0 200 200"
   preserveAspectRatio="xMidYMid meet"
   visibility="visible"
   version="1.1"
   id="svg36">
  <metadata
     id="metadata40">
    <rdf:RDF>
      <cc:Work
         rdf:about="">
        <dc:format>image/svg+xml</dc:format>
        <dc:type
           rdf:resource="http://purl.org/dc/dcmitype/StillImage" />
        <dc:title></dc:title>
      </cc:Work>
    </rdf:RDF>
  </metadata>
  <defs
     id="defs">
    <radialGradient
       gradientTransform="matrix(-1.8806964,-3.2574618,3.2864482,-1.8972531,-185.92052,293.94165)"
       gradientUnits="userSpaceOnUse"
       r="57.375"
       fy="91.963089"
       fx="-7.4943094"
       cy="91.963089"
       cx="-7.4943094"
       id="radialGradient97">
      <stop
         id="stop91"
         offset="0"
         style="stop-color:#ffff00;stop-opacity:1" />
      <stop
         id="stop93"
         offset="1"
         style="stop-color:#ab37c8;stop-opacity:1" />
    </radialGradient>
    <linearGradient
       gradientTransform="matrix(0.17313384,0,0,0.17313384,-33.193017,-54.437514)"
       gradientUnits="userSpaceOnUse"
       y2="1750"
       x2="894"
       y1="2030"
       x1="2050"
       id="linearGradient909">
      <stop
         id="stop903"
         offset="0"
         style="stop-color:#1a1a1a;stop-opacity:1" />
      <stop
         id="stop905"
         offset="1"
         style="stop-color:#4d4d4d;stop-opacity:1" />
    </linearGradient>
    <linearGradient
       gradientTransform="matrix(1.7313384,0,0,1.7313384,-33.193017,-54.437514)"
       gradientUnits="userSpaceOnUse"
       y2="146"
       x2="168"
       y1="179"
       x1="96.599998"
       id="linearGradient1006">
      <stop
         id="stop1018"
         offset="0"
         style="stop-color:#4d4d4d;stop-opacity:1" />
      <stop
         id="stop1291"
         offset="0.65623403"
         style="stop-color:#1a1a1a;stop-opacity:1" />
      <stop
         id="stop1289"
         offset="0.82056713"
         style="stop-color:#333333;stop-opacity:1" />
      <stop
         id="stop1020"
         offset="1"
         style="stop-color:#000000;stop-opacity:1" />
    </linearGradient>
    <linearGradient
       gradientTransform="matrix(1.7313384,0,0,1.7313384,-33.193017,-54.437514)"
       gradientUnits="userSpaceOnUse"
       y2="66.5"
       x2="45.799999"
       y1="78"
       x1="46.400002"
       id="linearGradient921">
      <stop
         id="stop915"
         offset="0"
         style="stop-color:#a0892c;stop-opacity:1" />
      <stop
         id="stop917"
         offset="1"
         style="stop-color:#28220b;stop-opacity:1" />
    </linearGradient>
    <linearGradient
       gradientTransform="matrix(1.7313384,0,0,1.7313384,10.218983,-15.225514)"
       gradientUnits="userSpaceOnUse"
       y2="79.400002"
       x2="93.400002"
       y1="60.700001"
       x1="43.299999"
       id="linearGradient896">
      <stop
         id="stop890"
         offset="0"
         style="stop-color:#ffccaa;stop-opacity:1" />
      <stop
         id="stop892"
         offset="1"
         style="stop-color:#925f46;stop-opacity:1" />
    </linearGradient>
  </defs>
  <g
     id="avatar"
     style="display:inline">
    <g
       id="g75"
       transform="matrix(-1,0,0,1,200,0)">
      <circle
         cx="100"
         cy="100"
         r="100"
         id="background"
         style="display:inline;fill:url(#radialGradient97);fill-opacity:1;stroke-width:1.74292" />
      <g
         transform="translate(-43.412,-39.212)"
         style="display:inline"
         id="coat_under">
        <path
           id="body"
           style="fill:url(#linearGradient909);fill-opacity:1;stroke:none;stroke-width:0;stroke-linecap:round;stroke-linejoin:round;stroke-miterlimit:4;stroke-dasharray:none;stroke-opacity:1;paint-order:normal"
           d="m 102.54297,109 -29.257814,28.74023 c 0,0 14.023021,27.70311 -0.693359,43.28516 5.71342,-3.46267 21.468324,-10.38975 22.333984,-12.12109 0.205709,9.94255 0.894375,20.34281 1.921875,31.0957 h 42.511724 c -4.43673,-15.0671 -9.54397,-30.06111 -15.51954,-44.94531 l 2.76954,-1.73242 c 1.38507,0 9.52244,0.001 18.52539,1.73242 6.92536,0 15.58224,1.73047 19.04492,1.73047 L 185.29688,200 H 200 V 171.68164 L 186.6875,151.5918 145.13477,130.81641 C 122.80052,118.69704 103.2362,109.34696 102.7168,109.17383 102.54366,109.17383 102.54297,109 102.54297,109 Z"
           transform="translate(43.412,39.212)" />
        <path
           id="inner"
           style="fill:#000000;fill-opacity:1;stroke:none;stroke-width:0.173134px;stroke-linecap:butt;stroke-linejoin:miter;stroke-opacity:1"
           d="m 102.7168,109.17383 -29.431644,28.5664 c 0,3.46268 13.676751,24.24044 -0.693359,43.28516 L 92.15625,172.36719 108.02344,200 h 11.7832 c -4.17653,-32.56724 -11.40076,-82.6086 -17.08984,-90.82617 z"
           transform="translate(43.412,39.212)" />
      </g>
      <path
         id="head"
         d="m 171.92599,135.22779 c -9.52236,-9.52235 -13.50444,-22.16112 -14.88952,-25.97006 15.40892,-24.75815 -16.62084,-17.486529 -22.50739,-8.82983 L 124.14105,68.225 c 0,0 -24.931268,-0.173133 -31.337223,15.408911 C 85.878465,100.4279 90.033676,112.201 90.033676,112.201 c -1.211937,5.71341 -6.232817,13.15817 -4.155211,16.27458 2.597006,3.1164 6.40596,2.42387 6.40596,2.42387 l 0.519402,1.21194 1.385071,7.79103 c 0,0 0.173133,1.21193 1.731341,1.03879 0,0 -0.346268,2.25074 0.173135,2.94329 l 1.211931,1.90446 7.444755,15.58205 h 26.31635 c 5.02087,3.46268 10.04176,15.58204 10.04176,15.58204 18.35218,-13.85071 29.25961,-31.51036 30.81782,-41.72526 z"
         style="display:inline;fill:url(#linearGradient896);fill-opacity:1;stroke:none;stroke-width:0.173134px;stroke-linecap:butt;stroke-linejoin:miter;stroke-opacity:1"
         transform="translate(-43.412,-39.212)" />
      <path
         id="hair"
         d="m 147.16785,143.19195 c 0,0 -15.23578,28.56708 -42.76406,28.56708 -3.46267,0 -11.773097,-22.16112 -7.617889,-26.1432 3.635809,-3.80895 5.367159,3.11641 5.367159,3.11641 2.42386,0.5194 4.50148,-2.94328 4.50148,-2.94328 -1.21194,-4.67461 -2.42389,-6.23282 -2.42389,-6.23282 -10.214886,-1.73134 -10.907422,0.86568 -9.868619,1.03881 -6.059692,1.38506 -4.847756,-8.31042 0.519403,-10.04177 10.734306,3.11642 14.543246,12.2925 14.543246,12.2925 39.99391,13.50445 20.42979,-56.614762 8.31042,-61.98191 -1.03881,-4.501479 3.98208,-7.098487 2.77014,-8.656692 -12.29251,-4.155211 -25.970075,6.579086 -28.04768,12.292502 -0.346268,-21.468595 52.11328,-29.779026 66.48339,-5.540282 10.56117,-17.140249 8.65669,-22.161137 2.42388,-22.680539 11.94624,-10.907431 3.6358,7.098494 20.42979,-0.692534 -10.38804,7.271627 -9.34923,15.755184 -15.23578,18.871594 6.23281,2.770141 15.23578,-16.274588 15.23578,-16.274588 0.34627,11.946241 -6.75222,18.871594 -6.75222,18.871594 8.31042,-3.289542 10.04175,-18.69846 23.89246,1.038804 0,0 -16.79397,-6.75222 -23.19993,5.88655 0,0 -9.00296,6.579086 2.59701,0.519401 20.60292,-19.91039 8.48356,15.408914 8.48356,15.408914 -3.46268,-17.313386 -19.9104,-3.462676 -19.9104,-3.462676 26.83576,-8.829828 16.44772,36.011842 -1.38506,20.776062 -2.07761,-1.73134 2.0776,3.98208 1.0388,12.46564 -3.98207,-0.69254 -8.48356,-10.2149 -9.34922,-20.42979 0.86566,-6.75223 0.69253,-24.065614 -22.33428,-8.1373 z"
         style="fill:#2b0000;stroke:none;stroke-width:0.173134px;stroke-linecap:butt;stroke-linejoin:miter;stroke-opacity:1"
         transform="translate(-43.412,-39.212)" />
      <g
         transform="translate(-43.412,-39.212)"
         style="display:inline"
         id="coat">
        <path
           id="bodytop"
           style="fill:url(#linearGradient1006);fill-opacity:1;stroke:none;stroke-width:0.865669;stroke-linecap:round;stroke-linejoin:round;stroke-miterlimit:4;stroke-dasharray:none;stroke-opacity:1;paint-order:normal"
           d="m 139.94141,80.087891 c -1.5582,0.86567 -20.43046,25.623239 -46.919926,52.458989 0.86568,24.23875 8.137226,46.74629 18.005856,65.79101 0.0527,0.55459 0.11232,1.10771 0.16602,1.66211 H 200 v -6.0957 c -0.40267,-1.956 -0.80399,-3.92168 -1.19336,-5.95508 0.42549,0.69902 0.77624,1.26767 1.19336,1.95117 v -68.75781 c -11.79706,-13.9337 -22.74344,-21.83585 -32.35742,-20.2793 0,0 -17.31467,4.50169 -20.77735,3.46289 -1.73135,-1.0388 -5.19249,-14.889039 -6.92382,-24.238279 z"
           transform="translate(43.412,39.212)" />
        <path
           id="collar"
           d="m 136.43355,171.75903 c 0,0 21.29547,32.89543 39.47452,36.35811 2.597,-56.26849 14.37011,-64.57892 14.37011,-64.57892 -3.46268,6.05969 -11.08057,29.95215 -8.6567,78.42962 -23.02679,-12.11936 -45.18793,-50.20881 -45.18793,-50.20881 z"
           style="display:inline;fill:#000000;stroke:none;stroke-width:0.173134px;stroke-linecap:butt;stroke-linejoin:miter;stroke-opacity:1" />
        <path
           id="pit"
           style="display:inline;fill:#000000;stroke:none;stroke-width:0.173134px;stroke-linecap:butt;stroke-linejoin:miter;stroke-opacity:1"
           d="m 184.95508,108.30859 c -12.60287,7.75562 -8.91292,47.54112 5.2793,91.69141 H 200 v -6.07617 c -0.4188,-1.9848 -0.82318,-3.97566 -1.19336,-5.97461 0.40674,0.646 0.79057,1.28826 1.19336,1.93359 v -10.51172 c -1.52924,-2.33392 -3.07443,-4.66884 -4.65625,-7.0039 0,0 -22.50804,-43.28253 -10.38867,-64.0586 z"
           transform="translate(43.412,39.212)" />
      </g>
      <g
         transform="translate(-43.412,-39.212)"
         style="display:inline"
         id="shades">
        <path
           id="frame"
           d="m 88.129205,117.74128 c -2.25074,-2.42387 -2.943276,-9.34922 -2.597008,-10.56117 1.558204,-3.28953 7.444763,-8.137287 8.483567,-8.310421 5.020883,-1.558199 6.925356,2.250741 8.137296,3.116421 16.96711,-3.635814 46.39986,-7.617894 47.43866,-7.617894 -2.42387,0.346269 -4.32833,1.385065 -6.92535,3.116407 0,0 -21.29546,3.116407 -37.74318,6.752227 0,0 -1.90446,0.17313 -0.86567,4.15521 0,0 2.94328,7.79102 -2.597,11.08056 0,0 -6.579086,3.98207 -11.426844,-7.44475 0,0.69254 -1.904471,5.71341 -1.904471,5.71341 z"
           style="fill:#000000;stroke:none;stroke-width:0.173134px;stroke-linecap:butt;stroke-linejoin:miter;stroke-opacity:1" />
        <path
           id="lens"
           style="display:inline;fill:url(#linearGradient921);fill-opacity:1;stroke:none;stroke-width:0.173134px;stroke-linecap:butt;stroke-linejoin:miter;stroke-opacity:1"
           d="m 51.923828,60.759766 c -0.435159,0.01822 -0.876657,0.110069 -1.320312,0.283203 -5.540293,2.77014 -5.539119,6.406408 -3.115235,12.292969 1.731338,3.28955 6.059499,8.48385 9.695313,6.40625 6.492515,-3.083954 1.267624,-19.255688 -5.259766,-18.982422 z m -8.417969,7.208984 c -0.86567,-0.17313 -1.384765,1.556641 -1.384765,1.556641 -0.346268,0.86566 0.518096,6.926296 2.595703,9.003906 2.250749,-4.50148 0.174133,-9.002327 -1.210938,-10.560547 z"
           transform="translate(43.412,39.212)" />
      </g>
      <path
         id="skindeets"
         style="display:inline;fill:#782121;stroke:none;stroke-width:0.173134px;stroke-linecap:butt;stroke-linejoin:miter;stroke-opacity:1"
         d="m 106.82031,54.59375 c -3.88739,0.129848 -8.042348,3.3764 -9.470701,5.064453 12.985041,-9.176094 15.062071,-0.866534 15.927731,1.730469 2.77015,12.98504 -5.88562,16.967889 -11.94531,18.699219 8.6567,-1.5582 11.25429,-5.540791 12.8125,-9.869141 1.38507,-11.080554 -2.25165,-13.157904 -3.63672,-14.542969 -1.12537,-0.822387 -2.3917,-1.125314 -3.6875,-1.082031 z m 0.25781,3.373047 c -1.70766,0.04396 -3.12692,1.084742 -3.66796,1.517578 -5.194014,6.232816 -0.69336,7.791016 -0.69336,7.791016 3.11641,0 3.11606,1.039661 3.80859,-1.730469 0,-1.03882 -3.46191,-0.174212 -4.67383,-1.732422 -0.34628,-1.5582 1.03902,-0.691973 3.46289,-0.345703 5.54029,-0.17313 6.57856,1.038129 5.71289,5.193359 -1.73135,4.50148 -4.84765,2.771485 -4.84765,2.771485 -1.5582,-0.86567 -2.42326,-0.520099 -2.76953,-0.173829 -0.5194,0.346261 -2.42383,-2.769531 -2.42383,-2.769531 2.0776,5.19402 -1.731594,3.634593 -1.039064,5.539063 1.904494,2.42387 2.942014,-3.809213 7.962894,-1.039063 3.63581,0.86567 5.8865,-11.080733 2.42382,-13.677734 -1.10373,-1.038806 -2.23125,-1.370126 -3.25586,-1.34375 z M 51.210938,82.376953 c -1.143166,-0.03529 -2.424153,0.296644 -3.722657,1 3.63581,-0.69254 7.09722,-0.345787 7.962891,4.501953 0.11903,-3.570882 -1.725271,-5.424306 -4.240234,-5.501953 z m -1.646485,4.808594 c -2.423873,0.17314 -3.289062,2.078813 -3.289062,2.251953 0.865677,2.07759 5.194876,-0.173959 6.060547,-0.693359 0,-0.86568 -1.732681,-1.558594 -2.771485,-1.558594 z" />
    </g>
  </g>
</svg>
