<?xml version="1.0" encoding="utf-8"?>
<svg width="200px" height="200px" viewBox="0 0 200 200" preserveAspectRatio="xMidYMid meet" xmlns="http://www.w3.org/2000/svg">
    <desc>HTML tag logo with animated gradient colours and embossed lighting.</desc>
    <defs>
        <filter id="lightemboss">
            <!--This filter gives the embossed shiny effect-->
            <feGaussianBlur stdDeviation="2.2" result="blurgaus" in="none"/>
            <feSpecularLighting result="lightblur" in="blurgaus" specularConstant="1.4" specularExponent="44" style="lighting-color: rgb(238, 203, 171);" surfaceScale="7" width="0" height="0" x="0" y="0">
                <feDistantLight azimuth="17" elevation="31">
                </feDistantLight>
            </feSpecularLighting>
            <feComposite in="lightblur" in2="SourceGraphic" operator="arithmetic" k1="0" result="composite-0" k2="1.4" k3="1" x="0"/>
        </filter>
        <!--'Computer game chrome' gradient with animated stops and grid 'x' values to give the impression of landscape passing by-->
        <linearGradient id="80schrome" gradientUnits="userSpaceOnUse" x1="150" y1="0" x2="150" y2="100" gradientTransform="matrix(0.8, 0, 0, 1.6, -33, 23)" spreadMethod="pad">
            <stop offset="0" style="stop-color: rgb(222, 236, 245);"/>
            <stop offset="0.059" style="stop-color: rgb(90, 84, 211);"/>
            <stop offset="0.222" style="stop-color: rgb(51,181,255);"/>
            <stop offset="0.502" style="stop-color: rgb(183, 209, 237);"/>
            <stop offset="0.572" style="stop-color: rgb(254, 254, 254);"/>
            <stop offset="0.585" style="stop-color: rgb(75,55,0);"/>
            <stop offset="0.875" style="stop-color: rgb(234,192,80);"/>
            <stop offset="0.932" style="stop-color: rgb(207,221,222);"/>
            <stop offset="1" style="stop-color: rgb(250,242,219);"/>
        </linearGradient>
    </defs>
    <g>
        <title>JeffersonReal.com</title>
        <path id="blacklemon" style="fill: rgb(28, 28, 28);" d="M 100 0 H 180 A 20 20 0 0 1 200 20 V 100 A 100 100 0 0 1 100 200 H 20 A 20 20 0 0 1 0 180 V 100 A 100 100 0 0 1 100 0 Z">
        </path>
        <path id="htmltag" style="paint-order: fill; fill: url(#80schrome); filter: url(#lightemboss);" d="M 180 88 C 180 94.6274 174.6274 100 168 100 L 156 100 L 156 44 L 100 44 L 100 32 C 100 25.3726 105.3726 20 112 20 L 180 20 Z M 71.2722 48.7287 L 84.3313 35.6674 L 130.6728 139.1202 C 132.4165 143.0127 131.5457 148.453 128.7278 151.2713 L 115.6687 164.3326 L 69.3272 60.8798 C 67.5835 56.9873 68.4543 51.547 71.2722 48.7287 Z M 100 156 L 100 168 C 100 174.6274 94.6274 180 88 180 L 20 180 L 20 112 C 20 105.3726 25.3726 100 32 100 L 44 100 L 44 156 Z">
        </path>
    </g>
</svg>