<?xml version="1.0" encoding="UTF-8" standalone="no"?>
<svg
   xmlns:svg="http://www.w3.org/2000/svg"
   xmlns="http://www.w3.org/2000/svg"
   preserveAspectRatio="xMidYMid meet"
   x="0"
   y="0"
   viewBox="0 0 100 100"
   width="100"
   height="100">
  <circle
   id="svg_naviconbackground"
   cx="50"
   cy="50"
   r="50"
   opacity="0"
   fill="#262422"
   fill-opacity="0"/>
  <path
   id="svg_about"
   d="m 49.918,12 c -7.915,0 -14.355,6.44 -14.355,14.355 v 8.477 c 0,3.96 1.64,7.552 4.243,10.152 v 1.395 L 34.4,51.56 26.88,53.756 a 2.32,2.32 0 0 0 -0.073,0.023 c -3.3,1.1 -5.233,4.593 -4.42,7.97 l 3.626,18.592 a 2.051,2.051 0 0 0 2.182,1.65 C 28.247,81.996 28.299,82 28.351,82 h 43.425 a 2.05,2.05 0 0 0 2.009,-1.638 L 77.608,61.76 c 0.82,-3.38 -1.113,-6.88 -4.418,-7.98 a 1.792,1.792 0 0 0 -0.086,-0.027 l -7.663,-2.185 -5.44,-5.19 v -1.394 c 2.604,-2.6 4.244,-6.191 4.244,-10.152 V 26.355 C 64.246,18.461 57.853,12 49.918,12 Z m 0,4.102 c 3.349,0 6.327,1.614 8.2,4.104 a 10.297,10.297 0 0 1 -8.2,4.099 H 39.87 c 0.953,-4.675 5.096,-8.203 10.048,-8.203 z m 10.047,8.196 c 0.135,0.665 0.207,1.353 0.207,2.057 v 8.477 c 0,5.654 -4.6,10.254 -10.254,10.254 -5.654,0 -10.281,-4.6 -10.281,-10.254 v -6.426 h 10.281 c 3.793,0 7.394,-1.516 10.046,-4.108 z m -14.966,24.02 c 1.535,0.562 3.192,0.87 4.92,0.87 1.726,0 3.383,-0.308 4.918,-0.87 l -4.919,7.414 z m -3.518,2.116 5.8,8.743 -3.196,3.197 -5.866,-8.797 z m 16.875,0 3.26,3.143 -5.864,8.797 -3.198,-3.197 z m 6.75,5.303 6.825,1.946 c 1.12,0.392 2.015,1.543 1.668,3.213 L 70.105,77.898 H 51.94 V 64.392 l 2.68,2.652 c 0.914,0.915 2.439,0.763 3.156,-0.313 z m -30.376,0 7.33,10.994 a 2.051,2.051 0 0 0 3.156,0.313 l 2.651,-2.652 V 77.898 H 29.717 C 29.7,77.82 26.4,60.888 26.38,60.81 a 2.65,2.65 0 0 1 1.693,-3.13 z m 27.492,13.958 a 2.051,2.051 0 0 0 0,4.102 h 4.102 a 2.051,2.051 0 0 0 0,-4.102 z"
   display="inline"
   stroke-width="0.137"
   style="opacity:1;stroke-width:0.137;stroke-miterlimit:4;stroke-dasharray:none;stroke:none;stroke-opacity:1;fill:#262422;fill-opacity:1" />
</svg>
