<?xml version="1.0" encoding="UTF-8" standalone="no"?>
<svg
   xmlns:svg="http://www.w3.org/2000/svg"
   xmlns="http://www.w3.org/2000/svg"
   preserveAspectRatio="xMidYMid meet"
   version="1.1"
   x="0"
   y="0"
   viewBox="0 0 100 100"
   width="100"
   height="100">
  <circle
   id="svg_naviconbackground"
   cx="50"
   cy="50"
   r="50"
   opacity="0"
   fill="#262422"
   fill-opacity="0"
   stroke-width="0.1"
   stroke-linecap="square"
   paint-order="markers stroke fill"
   style="stroke:none" />
  <path
   id="svg_contact"
   d="M49.883 21.875C33.196 21.875 20 33.821 20 48.242c0 6.143 2.43 12.095 6.855 16.81a10.69 10.69 0 01-2.824 10.072c-1.103 1.103-.323 3.001 1.242 3.001 5.01 0 9.838-1.963 13.427-5.422 3.55 1.265 7.306 1.906 11.183 1.906C66.616 74.61 80 62.628 80 48.242c0-14.394-13.393-26.367-30.117-26.367zm0 3.492c14.668 0 26.625 10.275 26.625 22.875S64.55 71.117 49.883 71.117c-3.835 0-7.531-.721-10.988-2.098a1.758 1.758 0 00-1.947.447 15.868 15.868 0 01-7.89 4.681 14.214 14.214 0 001.072-10.461 1.757 1.757 0 00-.43-.744c-3.988-4.108-6.208-9.328-6.208-14.7 0-12.6 11.852-22.875 26.39-22.875zM35.82 42.969a5.28 5.28 0 00-5.273 5.273 5.28 5.28 0 005.273 5.274 5.28 5.28 0 005.274-5.274 5.28 5.28 0 00-5.274-5.273zm14.063 0a5.28 5.28 0 00-5.274 5.273 5.28 5.28 0 005.274 5.274 5.28 5.28 0 005.273-5.274 5.28 5.28 0 00-5.273-5.273zm14.297 0a5.28 5.28 0 00-5.274 5.273 5.28 5.28 0 005.274 5.274 5.28 5.28 0 005.273-5.274 5.28 5.28 0 00-5.273-5.273zm-28.36 3.515c.97 0 1.758.789 1.758 1.758A1.76 1.76 0 0135.82 50a1.76 1.76 0 01-1.758-1.758c0-.97.789-1.758 1.758-1.758zm14.063 0c.97 0 1.758.789 1.758 1.758A1.76 1.76 0 0149.883 50a1.76 1.76 0 01-1.758-1.758c0-.97.789-1.758 1.758-1.758zm14.297 0c.969 0 1.757.789 1.757 1.758A1.76 1.76 0 0164.18 50a1.76 1.76 0 01-1.758-1.758c0-.97.788-1.758 1.758-1.758z"
   stroke-width=".117"
   style="fill:#262422;fill-opacity:1;stroke:none" />
</svg>
