<svg
  class="svgWheel"
  viewBox=" 0 0 200 200"
  visibility="hidden"
  preserveAspectRatio="xMidYMid meet"
  xmlns="http://www.w3.org/2000/svg">
  <defs>

<!-- RIM CHROME PATTERN -->

    <pattern
      id="svgWheel_pattChrome"
      width="100%" height="100">
      <rect class="svgWheel_rectRim"
        width="75%" height="75%"
        y="0%" x="0%"
        fill="url(#svgWheel_gradChrome)">
      </rect>
    </pattern>

<!-- CHROME GRADIENT -->

    <linearGradient
      id="svgWheel_gradChrome"
      spreadMethod="pad"
      x1="0" y1="100%" x2="0" y2="0">
      <stop offset="0%" style="stop-color: #faf2db;"/>
      <stop offset="10%" style="stop-color: #f3e9cf;"/>
      <stop offset="22%" style="stop-color: #eac050;"/>
      <stop offset="38%" style="stop-color: #211800;"/>
      <stop offset="39%" style="stop-color: #fefefe;"/>
      <stop offset="59%" style="stop-color: #b7d1ed;"/>
      <stop offset="75%" style="stop-color: #33b5ff;"/>
      <stop offset="100%" style="stop-color: #334bff;"/>
      </linearGradient>

<!-- TYRE GRADIENT -->

    <radialGradient
      id="svgWheel_gradTyre"
      gradientUnits="userSpaceOnUse"
      cx="100" cy="100" r="100"
      gradientTransform="matrix(0.999707, 0.000323, -0.000323, 0.999707, 0.06152, -0.002957)">
      <stop offset="0" style="stop-color: #000;"/>
      <stop offset="0.813" style="stop-color: #222;"/>
      <stop offset="0.94" style="stop-color: #262626;"/>
      <stop offset="0.976" style="stop-color: #333;"/>
      <stop offset="0.977" style="stop-color: #00000000;"/>
      <stop offset="1" style="stop-color: #00000000;"/>
    </radialGradient>

<!-- TEXT GRADIENT -->

    <radialGradient
      id="svgWheel_gradText"
      gradientUnits="userSpaceOnUse"
      cx="99.797" cy="99.389" r="40.031"
      gradientTransform="matrix(-1.886939, -1.639417, 1.625743, -1.87124, 126.526944, 448.97857)">
      <stop offset="0" style="stop-color: #fff;"/>
      <stop offset="0.775" style="stop-color: #d2d2d2;"/>
      <stop offset="1" style="stop-color: #fff;"/>
    </radialGradient>

<!-- LUGNUT GRADIENTS  -->

    <radialGradient
      id="svgWheel_gradNut1"
      gradientUnits="userSpaceOnUse"
      cx="810" cy="356" r="5"
      gradientTransform="matrix(0.88123, 0.002578, -0.002578, 0.88123, 97.121161, 40.194358)">
      <stop offset="0" style="stop-color: #fff;"/>
      <stop offset="0.816" style="stop-color: #b1b1b1;"/>
      <stop offset="1" style="stop-color: #fff;"/>
    </radialGradient>
    <radialGradient
      id="svgWheel_gradNut2"
      gradientUnits="userSpaceOnUse"
      cx="810" cy="356" r="5"
      gradientTransform="matrix(0.937486, 0.016571, -0.016571, 0.937486, 56.535482, 8.832765)">
      <stop offset="0" style="stop-color: #fff;"/>
      <stop offset="0.816" style="stop-color: #b1b1b1;"/>
      <stop offset="1" style="stop-color: #fff;"/>
    </radialGradient>
    <radialGradient
      id="svgWheel_gradNut3"
      gradientUnits="userSpaceOnUse"
      cx="810" cy="356" r="5"
      gradientTransform="matrix(0.924634, -0.027691, 0.027691, 0.924634, 51.188564, 49.259659)">
      <stop offset="0" style="stop-color: #fff;"/>
      <stop offset="0.816" style="stop-color: #b1b1b1;"/>
      <stop offset="1" style="stop-color: #fff;"/>
    </radialGradient>
    <radialGradient
      id="svgWheel_gradNut4"
      gradientUnits="userSpaceOnUse"
      cx="810" cy="356" r="5"
      gradientTransform="matrix(0.890871, 0.036479, -0.036479, 0.890871, 101.380247, 9.301005)">
      <stop offset="0" style="stop-color: #fff;"/>
      <stop offset="0.816" style="stop-color: #b1b1b1;"/>
      <stop offset="1" style="stop-color: #fff;"/>
    </radialGradient>

<!-- LUGHOLE GRADIENTS -->

    <radialGradient
      id="svgWheel_gradHole1"
      gradientUnits="userSpaceOnUse"
      cx="117" cy="83" r="8"
      gradientTransform="matrix(1.01678, 0.098267, -0.098267, 1.01678, 6.192846, -12.889958)">
      <stop offset="0.7" style="stop-color: #111;"/>
      <stop offset="1" style="stop-color: #ffffff00;"/>
    </radialGradient>
    <radialGradient
      id="svgWheel_gradHole2"
      gradientUnits="userSpaceOnUse"
      cx="117" cy="117" r="8"
      gradientTransform="matrix(1.011246, -0.025258, 0.025258, 1.011246, -4.270983, 1.639481)">
      <stop offset="0.7" style="stop-color: #111;"/>
      <stop offset="1" style="stop-color: #ffffff00;"/>
    </radialGradient>
    <radialGradient
      id="svgWheel_gradHole3"
      gradientUnits="userSpaceOnUse"
      cx="83" cy="117" r="8"
      gradientTransform="matrix(1.016779, 0.098266, -0.098266, 1.016779, 10.104493, -10.119342)">
      <stop offset="0.7" style="stop-color: #111;"/>
      <stop offset="1" style="stop-color: #ffffff00;"/>
    </radialGradient>
    <radialGradient
      id="svgWheel_gradHole4"
      gradientUnits="userSpaceOnUse"
      cx="83" cy="83" r="8"
      gradientTransform="matrix(1.023768, 0.11058, -0.11058, 1.023768, 7.205379, -11.150876)">
      <stop offset="0.7" style="stop-color: #111;"/>
      <stop offset="1" style="stop-color: #ffffff00;"/>
    </radialGradient>

<!-- LIGHTING AND SHADING GRADIENTS -->

    <radialGradient
      id="svgWheel_gradDistantLight"
      gradientUnits="userSpaceOnUse"
      cx="-21.941" cy="58.448" r="100"
      gradientTransform="matrix(1.807044, 1.814444, -0.789825, 0.786604, 89.355392, -1.998092)">
      <stop offset="0" style="stop-color: #FFFFFF38;"/>
      <stop offset="1" style="stop-color: #FFFFFF00;"/>
    </radialGradient>
    <radialGradient
      id="svgWheel_gradAmbientLight"
      gradientUnits="userSpaceOnUse"
      cx="100" cy="100" r="75"
      gradientTransform="matrix(1.333249, 0.000051, -0.000051, 1.333249, -33.319714, -33.330101)">
      <stop offset="0" style="stop-color: #FFFFFFAB;"/>
      <stop offset="0.691" style="stop-color: #00000000;"/>
      <stop offset="0.758" style="stop-color: #0C0C0C;"/>
      <stop offset="0.84" style="stop-color: #00000000;"/>
      <stop offset="0.925" style="stop-color: #00000000;"/>
      <stop offset="0.976" style="stop-color: #000;"/>
      <stop offset="0.983" style="stop-color: #00000000;"/>
      <stop offset="1" style="stop-color: #00000000;"/>
    </radialGradient>
    <radialGradient
      id="svgWheel_gradSunDiffLight"
      gradientUnits="userSpaceOnUse"
      cx="83.659" cy="58.618" r="99"
      gradientTransform="matrix(0.434782, -0.539583, 0.36909, 0.297402, 16.90596, 110.99846)">
      <stop offset="0" style="stop-color: #FFFFFFA6;"/>
      <stop offset="1" style="stop-color: #FFFFFF00;"/>
    </radialGradient>
    <radialGradient
      id="svgWheel_gradSunSpotLight"
      gradientUnits="userSpaceOnUse"
      cx="8.491" cy="88.934" r="99"
      gradientTransform="matrix(0.163462, 0.191002, -0.191002, 0.163462, 87.115242, 54.878841)">
      <stop offset="0" style="stop-color: #FFF;"/>
      <stop offset="0.251" style="stop-color: #FFF;"/>
      <stop offset="1" style="stop-color: #FFFFFF00;"/>
    </radialGradient>
  </defs>

<!-- PATHS -->

  <g id="svgWheel_allPaths">
      <path
      id="svgWheel_tyre"
      fill="url(#svgWheel_gradTyre)"
      d="M 200 100 C 200 155.228 155.228 200 100 200 C 44.772 200 0 155.228 0 100 C 0 44.772 44.772 0 100 0 C 155.228 0 200 44.772 200 100 Z M 100 25 C 58.579 25 25 58.579 25 100 C 25 141.421 58.579 175 100 175 C 141.421 175 175 141.421 175 100 C 175 58.579 141.421 25 100 25 Z">
    </path>
    <circle
      id="svgWheel_rim"
      fill="url(#svgWheel_pattChrome)"
      cx="100" cy="100" r="75">
    </circle>
    <g id="svgWheel_tyreText">
      <path
        id="svgWheel_tyreText1"
        stroke="url(#svgWheel_gradText)"
        transform="matrix(1, 0, 0, 1, 0, 0)"
        d="M 18.037 77.368 L 12.367 75.967 L 12.401 75.831 L 18.07 77.232 C 18.601 77.363 18.999 77.643 19.264 78.073 C 19.523 78.494 19.534 79.187 19.296 80.151 C 19.171 80.656 19.023 81.062 18.85 81.37 C 18.678 81.677 18.487 81.908 18.278 82.063 C 18.076 82.212 17.852 82.297 17.606 82.319 C 17.361 82.341 17.102 82.318 16.83 82.251 L 15.752 81.985 L 15.786 81.849 L 16.864 82.115 C 17.381 82.243 17.834 82.176 18.221 81.915 C 18.617 81.649 18.93 81.049 19.16 80.117 C 19.382 79.218 19.375 78.567 19.138 78.165 C 18.909 77.758 18.542 77.492 18.037 77.368 ZM 21.172 72.627 L 22.776 68.337 L 22.907 68.386 L 21.254 72.807 L 14.173 70.16 L 15.826 65.739 L 15.957 65.788 L 14.353 70.078 L 17.641 71.307 L 18.849 68.075 L 18.98 68.124 L 17.772 71.356 L 21.172 72.627 ZM 24.853 64.067 L 24.79 64.192 L 18.04 60.788 L 20.053 56.797 L 20.178 56.86 L 18.228 60.726 L 21.799 62.527 L 23.236 59.679 L 23.361 59.742 L 21.924 62.59 L 24.853 64.067 ZM 29.06 56.359 L 28.984 56.477 L 22.631 52.379 L 25.054 48.623 L 25.171 48.699 L 22.824 52.338 L 26.186 54.506 L 27.915 51.825 L 28.033 51.901 L 26.304 54.581 L 29.06 56.359 ZM 33.952 49.033 L 36.836 45.475 L 36.945 45.563 L 33.973 49.229 L 28.1 44.469 L 31.072 40.802 L 31.181 40.89 L 28.297 44.448 L 31.024 46.659 L 33.196 43.979 L 33.305 44.067 L 31.132 46.747 L 33.952 49.033 ZM 37.151 34.631 L 34.964 36.756 L 37.786 39.661 L 39.974 37.536 C 40.39 37.131 40.569 36.762 40.513 36.426 C 40.461 36.086 40.257 35.732 39.899 35.363 L 39.216 34.661 C 38.914 34.35 38.584 34.182 38.226 34.158 C 37.863 34.13 37.505 34.287 37.151 34.631 Z M 37.87 39.747 L 40.135 42.078 L 40.034 42.176 L 34.766 36.753 L 37.054 34.53 C 37.441 34.154 37.833 33.983 38.228 34.017 C 38.633 34.051 38.996 34.233 39.316 34.563 L 39.985 35.252 C 40.287 35.562 40.493 35.855 40.602 36.13 C 40.711 36.405 40.684 36.697 40.519 37.006 L 40.626 36.901 C 41.033 36.507 41.425 36.302 41.802 36.289 C 42.184 36.28 42.542 36.448 42.877 36.792 L 44.187 38.141 L 44.086 38.238 L 42.776 36.89 C 42.46 36.565 42.133 36.405 41.793 36.409 C 41.454 36.423 41.092 36.616 40.71 36.988 L 37.87 39.747 ZM 44.193 28.339 L 46.664 26.45 L 46.749 26.562 L 44.278 28.45 C 43.966 28.689 43.782 28.964 43.726 29.275 C 43.67 29.586 43.741 29.872 43.94 30.131 L 44.638 31.045 C 44.836 31.305 45.029 31.447 45.216 31.472 C 45.394 31.495 45.579 31.458 45.773 31.361 L 48.489 30.04 C 48.748 29.917 49.006 29.876 49.262 29.915 C 49.518 29.954 49.792 30.164 50.084 30.545 L 50.582 31.197 C 50.829 31.52 50.922 31.872 50.861 32.254 C 50.801 32.636 50.583 32.971 50.207 33.258 L 47.434 35.378 L 47.349 35.266 L 50.122 33.147 C 50.46 32.888 50.66 32.584 50.721 32.235 C 50.781 31.896 50.697 31.578 50.47 31.282 L 49.973 30.63 C 49.709 30.286 49.466 30.094 49.243 30.055 C 49.024 30.021 48.793 30.059 48.55 30.169 L 45.842 31.484 C 45.618 31.597 45.4 31.641 45.189 31.618 C 44.983 31.6 44.762 31.437 44.527 31.13 L 43.828 30.216 C 43.602 29.92 43.521 29.6 43.586 29.257 C 43.647 28.908 43.849 28.602 44.193 28.339 ZM 57.105 21.837 L 59.209 25.391 C 59.494 25.873 59.554 26.368 59.39 26.875 C 59.222 27.378 58.668 27.907 57.727 28.464 C 56.786 29.021 56.058 29.25 55.543 29.152 C 55.025 29.049 54.623 28.756 54.338 28.274 L 52.234 24.72 C 51.949 24.238 51.887 23.748 52.049 23.249 C 52.208 22.744 52.757 22.214 53.698 21.657 C 54.639 21.1 55.372 20.872 55.896 20.972 C 56.417 21.067 56.82 21.355 57.105 21.837 Z M 52.355 24.648 L 54.458 28.203 C 54.727 28.656 55.103 28.925 55.587 29.01 C 56.071 29.095 56.761 28.873 57.656 28.343 C 58.545 27.817 59.075 27.318 59.244 26.845 C 59.408 26.376 59.356 25.915 59.088 25.462 L 56.984 21.908 C 56.72 21.461 56.34 21.193 55.847 21.106 C 55.351 21.027 54.659 21.251 53.77 21.777 C 52.875 22.307 52.348 22.805 52.19 23.27 C 52.035 23.742 52.09 24.201 52.355 24.648 ZM 61.907 17.618 L 68.94 20.905 L 66.603 15.477 L 66.732 15.421 L 69.721 22.365 L 69.592 22.421 L 69.023 21.098 L 61.806 17.737 C 61.797 17.734 61.784 17.728 61.767 17.721 C 61.752 17.721 61.738 17.723 61.726 17.728 C 61.72 17.731 61.715 17.736 61.712 17.745 C 61.717 17.757 61.721 17.767 61.723 17.773 L 64.641 24.552 L 64.512 24.607 L 61.583 17.801 C 61.562 17.752 61.561 17.708 61.581 17.671 C 61.608 17.63 61.636 17.604 61.667 17.59 C 61.703 17.575 61.737 17.567 61.766 17.569 C 61.799 17.577 61.846 17.593 61.907 17.618 Z">
      </path>
      <path
        id="svgWheel_tyreText2"
        stroke="url(#svgWheel_gradText)"
        transform="matrix(1, 0, 0, 1, 0, 0)"
        d="M 181.992 122.528 L 187.663 123.922 L 187.63 124.058 L 181.958 122.664 C 181.427 122.534 181.029 122.254 180.764 121.825 C 180.504 121.404 180.492 120.711 180.729 119.747 C 180.853 119.242 181.001 118.835 181.173 118.527 C 181.345 118.219 181.535 117.988 181.745 117.834 C 181.947 117.684 182.17 117.599 182.416 117.577 C 182.662 117.555 182.92 117.577 183.192 117.644 L 184.27 117.909 L 184.237 118.045 L 183.159 117.78 C 182.641 117.652 182.188 117.72 181.801 117.982 C 181.406 118.248 181.094 118.848 180.865 119.78 C 180.644 120.68 180.652 121.331 180.89 121.732 C 181.12 122.139 181.487 122.404 181.992 122.528 ZM 178.862 127.273 L 177.264 131.565 L 177.133 131.517 L 178.78 127.093 L 185.865 129.731 L 184.218 134.154 L 184.087 134.106 L 185.685 129.813 L 182.395 128.589 L 181.192 131.822 L 181.06 131.773 L 182.264 128.54 L 178.862 127.273 ZM 175.193 135.837 L 175.256 135.712 L 182.01 139.108 L 180.002 143.102 L 179.877 143.039 L 181.822 139.17 L 178.248 137.374 L 176.815 140.224 L 176.69 140.161 L 178.123 137.311 L 175.193 135.837 ZM 170.995 143.551 L 171.071 143.434 L 177.429 147.523 L 175.011 151.283 L 174.894 151.207 L 177.236 147.565 L 173.871 145.401 L 172.146 148.084 L 172.028 148.009 L 173.754 145.326 L 170.995 143.551 ZM 166.112 150.884 L 163.233 154.445 L 163.124 154.357 L 166.091 150.687 L 171.97 155.44 L 169.003 159.11 L 168.894 159.022 L 171.773 155.461 L 169.044 153.254 L 166.875 155.937 L 166.766 155.849 L 168.935 153.166 L 166.112 150.884 ZM 162.931 165.29 L 165.116 163.161 L 162.29 160.26 L 160.105 162.388 C 159.69 162.793 159.511 163.163 159.567 163.499 C 159.62 163.839 159.825 164.193 160.183 164.56 L 160.867 165.262 C 161.169 165.573 161.499 165.74 161.857 165.763 C 162.22 165.792 162.578 165.634 162.931 165.29 Z M 162.206 160.174 L 159.939 157.846 L 160.039 157.749 L 165.314 163.164 L 163.029 165.39 C 162.642 165.767 162.251 165.938 161.855 165.905 C 161.45 165.871 161.087 165.69 160.766 165.36 L 160.097 164.672 C 159.794 164.362 159.588 164.069 159.479 163.795 C 159.369 163.52 159.397 163.228 159.561 162.919 L 159.453 163.023 C 159.048 163.419 158.656 163.623 158.279 163.637 C 157.897 163.646 157.538 163.479 157.203 163.135 L 155.891 161.789 L 155.992 161.691 L 157.303 163.038 C 157.62 163.362 157.948 163.522 158.287 163.517 C 158.627 163.503 158.988 163.31 159.37 162.937 L 162.206 160.174 ZM 155.897 171.59 L 153.429 173.482 L 153.344 173.371 L 155.812 171.479 C 156.124 171.24 156.308 170.965 156.364 170.653 C 156.419 170.342 156.347 170.057 156.149 169.797 L 155.449 168.885 C 155.251 168.625 155.058 168.483 154.871 168.459 C 154.693 168.435 154.508 168.472 154.314 168.57 L 151.6 169.895 C 151.341 170.017 151.083 170.06 150.827 170.021 C 150.57 169.982 150.296 169.772 150.004 169.391 L 149.505 168.741 C 149.258 168.418 149.164 168.065 149.224 167.683 C 149.284 167.301 149.502 166.966 149.878 166.679 L 152.648 164.556 L 152.733 164.667 L 149.963 166.79 C 149.625 167.049 149.425 167.353 149.365 167.702 C 149.305 168.041 149.389 168.359 149.617 168.655 L 150.115 169.306 C 150.379 169.65 150.622 169.842 150.845 169.881 C 151.064 169.914 151.295 169.876 151.538 169.765 L 154.245 168.447 C 154.469 168.334 154.686 168.289 154.897 168.312 C 155.104 168.33 155.325 168.493 155.56 168.8 L 156.26 169.712 C 156.487 170.009 156.568 170.328 156.504 170.672 C 156.443 171.02 156.241 171.327 155.897 171.59 ZM 142.994 178.109 L 140.886 174.557 C 140.6 174.076 140.539 173.581 140.702 173.073 C 140.869 172.571 141.423 172.041 142.363 171.483 C 143.303 170.924 144.031 170.694 144.546 170.791 C 145.065 170.894 145.467 171.187 145.753 171.668 L 147.861 175.22 C 148.147 175.701 148.209 176.191 148.048 176.69 C 147.89 177.195 147.341 177.726 146.401 178.284 C 145.461 178.843 144.728 179.072 144.204 178.972 C 143.683 178.878 143.28 178.59 142.994 178.109 Z M 147.741 175.291 L 145.632 171.74 C 145.364 171.287 144.987 171.018 144.503 170.934 C 144.018 170.849 143.329 171.072 142.435 171.603 C 141.546 172.13 141.017 172.63 140.848 173.103 C 140.685 173.572 140.737 174.033 141.006 174.486 L 143.114 178.037 C 143.38 178.485 143.759 178.752 144.253 178.839 C 144.749 178.916 145.441 178.691 146.329 178.164 C 147.224 177.633 147.75 177.135 147.907 176.669 C 148.062 176.198 148.006 175.738 147.741 175.291 ZM 138.198 182.334 L 131.161 179.055 L 133.505 184.481 L 133.376 184.536 L 130.378 177.596 L 130.507 177.541 L 131.078 178.862 L 138.299 182.214 C 138.308 182.217 138.321 182.223 138.338 182.23 C 138.353 182.23 138.367 182.228 138.379 182.223 C 138.385 182.22 138.39 182.215 138.393 182.206 C 138.388 182.194 138.384 182.184 138.381 182.178 L 135.455 175.403 L 135.584 175.348 L 138.522 182.15 C 138.543 182.199 138.544 182.243 138.524 182.28 C 138.497 182.321 138.469 182.347 138.438 182.361 C 138.402 182.377 138.368 182.384 138.339 182.382 C 138.306 182.374 138.259 182.358 138.198 182.334 Z">
      </path>
    </g>
    <g class="svgWheel_lightingShading">
      <circle
        id="svgWheel_distantLight"
        fill="url(#svgWheel_gradDistantLight)"
        cx="100" cy="100" r="99">
      </circle>
      <circle
        id="svgWheel_ambientLight"
        fill="url(#svgWheel_gradAmbientLight)"
        cx="100" cy="100" r="100">
      </circle>
      <circle
        id="svgWheel_sunDiffuseLight"
        fill="url(#svgWheel_gradSunDiffLight)"
        cx="100" cy="100" r="99">
      </circle>
      <circle
        id="svgWheel_sunSpotLight"
        fill="url(#svgWheel_gradSunSpotLight)"
        cx="100" cy="100" r="99">
      </circle>
    </g>
    <g id="svgWheel_lugs">
      <g id="svgWheel_lugholes">
        <circle
          id="hole1"
          fill="url(#svgWheel_gradHole1)"
          cx="117" cy="83" r="8"
          transform="matrix(-0.406736, -0.913546, 0.913546, -0.406736, 49.319171, 232.027886)">
        </circle>
        <circle
          id="svgWheel_hole2"
          fill="url(#svgWheel_gradHole2)"
          cx="117" cy="117" r="8"
          transform="matrix(-0.406736, -0.913546, 0.913546, -0.406736, 49.319205, 232.027942)">
        </circle>
        <circle
          id="svgWheel_hole3"
          fill="url(#svgWheel_gradHole3)"
          cx="83" cy="117" r="8"
          transform="matrix(-0.406736, -0.913546, 0.913546, -0.406736, 49.319218, 232.028)">
        </circle>
        <circle
          id="svgWheel_hole4"
          fill="url(#svgWheel_gradHole4)"
          cx="83" cy="83" r="8"
          transform="matrix(-0.406736, -0.913546, 0.913546, -0.406736, 49.319165, 232.02802)">
        </circle>
      </g>
      <g id="svgWheel_lugNuts">
        <path
          id="svgWheel_lug1"
          fill="url(#svgWheel_gradNut1)"
          transform="matrix(1, -0.000045, 0.000045, 1, -732.441344, -264.538879)"
          d="M 810 351.381 L 814 353.691 L 814 358.31 L 810 360.619 L 806 358.31 L 806 353.691 Z">
        </path>
        <path
          id="svgWheel_lug2"
          fill="url(#svgWheel_gradNut2)"
          transform="matrix(0.866048, 0.499961, -0.499961, 0.866048, -414.893031, -635.689508)"
          d="M 810 351.381 L 814 353.691 L 814 358.31 L 810 360.619 L 806 358.31 L 806 353.691 Z">
        </path>
        <path
          id="svgWheel_lug3"
          fill="url(#svgWheel_gradNut3)"
          transform="matrix(1, -0.000045, 0.000045, 1, -687.585815, -247.365127)"
          d="M 810 351.382 L 813.999 353.691 L 813.999 358.309 L 810 360.618 L 806.001 358.309 L 806.001 353.691 Z">
        </path>
        <path
          id="svgWheel_lug4"
          fill="url(#svgWheel_gradNut4)"
          transform="matrix(0.866003, -0.500039, 0.500039, 0.866003, -788.081508, 219.148113)"
          d="M 810 351.382 L 813.999 353.691 L 813.999 358.309 L 810 360.618 L 806.001 358.309 L 806.001 353.691 Z">
        </path>
      </g>
    </g>
  </g>
</svg>
