<?xml version="1.0" encoding="UTF-8" standalone="no"?>
<svg
   xmlns:svg="http://www.w3.org/2000/svg"
   xmlns="http://www.w3.org/2000/svg"
   preserveAspectRatio="xMidYMid meet"
   x="0"
   y="0"
   viewBox="0 0 100 100"
   width="100"
   height="100">
  <circle
   id="svg_naviconbackground"
   cx="50"
   cy="50"
   r="50"
   opacity="0"
   fill="#262422"
   fill-opacity="0"
   stroke-width=".1"
   stroke-linecap="square"
   paint-order="markers stroke fill"
   style="fill:#000000;fill-opacity:0;opacity:0" />
  <path
   id="svg_home"
   d="M50.118 18.008a5.25 5.25 0 00-3.426 1.273L21.843 40.356a5.271 5.271 0 00-.57 7.438c1.458 1.695 3.792 2.235 5.783 1.536v26.904c0 .971.764 1.758 1.734 1.758h42.42c.971 0 1.758-.787 1.758-1.758V49.33a5.27 5.27 0 005.762-1.539 5.241 5.241 0 001.254-3.836 5.237 5.237 0 00-1.826-3.6l-5.19-4.448v-12.64c0-.971-.786-1.758-1.757-1.758H64.18c-.97 0-1.734.787-1.734 1.758v3.6l-8.896-7.58a5.265 5.265 0 00-3.432-1.28zm0 3.522c.406 0 .813.141 1.144.425l24.609 21.07a1.758 1.758 0 01-2.289 2.669l-22.32-19.132a1.757 1.757 0 00-2.281-.006L26.42 45.693c-.737.63-1.85.544-2.48-.189a1.758 1.758 0 01.183-2.474l24.85-21.074a1.756 1.756 0 011.144-.427zm15.82 3.494h3.538v7.87l-3.539-3.013zm-15.826 5.182l19.365 16.58v27.69h-8.813v-15.82c0-.97-.787-1.757-1.757-1.757H41.095c-.971 0-1.735.787-1.735 1.758v15.82h-8.812V46.802zm-5.502 8.88c-.97 0-1.734.787-1.734 1.758V51.39c0 .971.763 1.758 1.734 1.758h10.781c.97 0 1.758-.787 1.758-1.758V40.844c0-.97-.787-1.758-1.758-1.758zm1.758 3.516h7.289v7.03h-7.29zM42.852 60.39h14.32v14.086h-14.32zm9.023 3.539a1.758 1.758 0 00-1.758 1.758 1.758 1.758 0 001.758 1.757 1.758 1.758 0 001.758-1.757 1.758 1.758 0 00-1.758-1.758z"
   stroke-width=".117"
   style="fill:#262422;fill-opacity:1;opacity:1" />
</svg>
